<?xml version="1.0" encoding="utf-8"?>
<!-- Generator: Adobe Illustrator 27.6.1, SVG Export Plug-In . SVG Version: 6.00 Build 0)  -->
<svg version="1.1" id="Layer_2" xmlns="http://www.w3.org/2000/svg" xmlns:xlink="http://www.w3.org/1999/xlink" x="0px" y="0px"
	 viewBox="0 0 191.895 230.393" enable-background="new 0 0 191.895 230.393" xml:space="preserve">
<g>
	<g>
		<rect x="15.336" y="732.844" fill="#003B5C" width="161.598" height="11.973"/>
		<path fill="#003B5C" d="M21.322,727.607h58.002V670.33c0-9.286,7.524-16.811,16.808-16.811c9.286,0,16.811,7.524,16.811,16.811
			v57.277h58.005V624.101h20.947l-95.76-109.227l-40.943,46.699v-15.102H29.755v44.116l-29.38,33.513h20.947V727.607z
			 M134.524,714.534v-12.35h25.681v12.35H134.524z M160.205,666.669v34.114h-25.681v-34.114H160.205z M97.714,604.63h28.296v24.896
			H97.714V604.63z M97.714,630.927h28.296v13.351H97.714V630.927z M63.915,604.63h32.398v24.896H63.915V604.63z M63.915,630.927
			h32.398v13.351H63.915V630.927z M31.793,666.669h25.684v34.114H31.793V666.669z M31.793,702.184h25.684v12.35H31.793V702.184z"/>
	</g>
</g>
<g>
	<rect x="15.336" y="218.42" fill="#00F156" width="161.598" height="11.973"/>
	<path fill="#00F156" d="M21.322,213.183h58.002v-57.277c0-9.286,7.524-16.811,16.808-16.811c9.286,0,16.811,7.524,16.811,16.811
		v57.277h58.005V109.677h20.947L96.135,0.45L55.192,47.149V32.048H29.755v44.116l-29.38,33.513h20.947V213.183z M134.524,200.109
		v-12.35h25.681v12.35H134.524z M160.205,152.245v34.114h-25.681v-34.114H160.205z M97.714,90.206h28.296v24.896H97.714V90.206z
		 M97.714,116.502h28.296v13.351H97.714V116.502z M63.915,90.206h32.398v24.896H63.915V90.206z M63.915,116.502h32.398v13.351
		H63.915V116.502z M31.793,152.245h25.684v34.114H31.793V152.245z M31.793,187.759h25.684v12.35H31.793V187.759z"/>
</g>
<rect x="217.962" y="218.447" fill="#003B5C" width="161.204" height="11.944"/>
<path fill="#003B5C" d="M223.934,213.224h57.86v-57.138c0-9.264,7.506-16.77,16.768-16.77c9.264,0,16.77,7.506,16.77,16.77v57.138
	h57.863V109.97h20.896L298.564,1.012l-40.843,46.585V32.531h-25.375V76.54l-29.309,33.43h20.896V213.224z M336.86,200.183v-12.321
	h25.618v12.321H336.86z M362.478,152.434v34.03H336.86v-34.03H362.478z M300.139,90.547h28.227v24.832h-28.227V90.547z
	 M300.139,116.777h28.227v13.32h-28.227V116.777z M266.422,90.547h32.319v24.832h-32.319V90.547z M266.422,116.777h32.319v13.32
	h-32.319V116.777z M234.379,152.434H260v34.03h-25.621V152.434z M234.379,187.862H260v12.321h-25.621V187.862z"/>
<path fill="#003B5C" d="M437.272,41.391c7.034,0,12.427,1.277,16.178,3.837c3.747,2.566,5.625,6.573,5.625,12.02
	c0,2.844-0.502,5.274-1.504,7.304c-1.002,2.025-2.456,3.68-4.367,4.957c-1.91,1.283-4.238,2.227-6.987,2.833
	c-2.748,0.606-5.893,0.906-9.433,0.906h-4.402v17.048h-8.803V42.575c2.05-0.464,4.32-0.781,6.812-0.944
	C432.884,41.473,435.177,41.391,437.272,41.391z M437.903,49.006c-2.235,0-4.078,0.065-5.521,0.208v16.491h4.263
	c4.239,0,7.501-0.595,9.782-1.785c2.282-1.185,3.423-3.434,3.423-6.742c0-1.583-0.303-2.91-0.906-3.979
	c-0.605-1.076-1.446-1.911-2.517-2.517c-1.072-0.606-2.342-1.037-3.808-1.294C441.151,49.131,439.579,49.006,437.903,49.006z"/>
<path fill="#003B5C" d="M476.12,43.066c0,1.583-0.513,2.839-1.536,3.772c-1.026,0.934-2.235,1.397-3.633,1.397
	c-1.444,0-2.681-0.464-3.704-1.397c-1.026-0.933-1.537-2.189-1.537-3.772c0-1.632,0.511-2.91,1.537-3.843
	c1.023-0.934,2.26-1.397,3.704-1.397c1.397,0,2.606,0.464,3.633,1.397C475.607,40.157,476.12,41.435,476.12,43.066z M475.212,90.296
	h-8.453V53.755h8.453V90.296z"/>
<path fill="#003B5C" d="M495.39,90.296c-2.339-4.798-4.735-10.306-7.191-16.524c-2.457-6.218-4.689-12.888-6.698-20.018h9.016
	c0.516,2.053,1.11,4.252,1.787,6.605c0.68,2.353,1.403,4.706,2.176,7.053c0.773,2.353,1.566,4.634,2.386,6.851
	c0.818,2.211,1.58,4.203,2.281,5.972c0.702-1.769,1.449-3.761,2.244-5.972c0.794-2.216,1.58-4.498,2.35-6.851
	c0.772-2.348,1.51-4.7,2.211-7.053c0.701-2.353,1.31-4.552,1.823-6.605h8.736c-2.011,7.129-4.244,13.8-6.7,20.018
	c-2.456,6.218-4.853,11.726-7.19,16.524H495.39z"/>
<path fill="#003B5C" d="M554.938,71.993c0,2.888-0.42,5.519-1.258,7.894c-0.838,2.374-2.025,4.4-3.562,6.081
	c-1.539,1.676-3.39,2.98-5.557,3.909c-2.165,0.934-4.553,1.397-7.162,1.397c-2.609,0-4.984-0.464-7.127-1.397
	c-2.143-0.928-3.982-2.233-5.519-3.909c-1.536-1.681-2.737-3.707-3.6-6.081c-0.863-2.375-1.291-5.006-1.291-7.894
	s0.428-5.508,1.291-7.86c0.862-2.353,2.074-4.367,3.635-6.043c1.559-1.682,3.412-2.97,5.555-3.881
	c2.143-0.906,4.495-1.359,7.056-1.359c2.562,0,4.927,0.453,7.094,1.359c2.164,0.912,4.018,2.2,5.555,3.881
	c1.536,1.676,2.734,3.69,3.597,6.043C554.506,66.485,554.938,69.105,554.938,71.993z M546.274,71.993c0-3.635-0.78-6.512-2.342-8.63
	c-1.562-2.118-3.739-3.177-6.534-3.177c-2.795,0-4.973,1.059-6.531,3.177c-1.562,2.118-2.342,4.995-2.342,8.63
	c0,3.679,0.78,6.589,2.342,8.734c1.559,2.14,3.736,3.209,6.531,3.209c2.795,0,4.973-1.07,6.534-3.209
	C545.494,78.581,546.274,75.672,546.274,71.993z"/>
<path fill="#003B5C" d="M563.251,44.115l8.453-1.397v11.038h12.998v7.058h-12.998v14.881c0,2.937,0.467,5.033,1.397,6.288
	c0.931,1.255,2.517,1.889,4.752,1.889c1.537,0,2.898-0.164,4.089-0.491c1.188-0.328,2.129-0.628,2.828-0.906l1.398,6.704
	c-0.978,0.42-2.261,0.852-3.844,1.294c-1.583,0.442-3.447,0.665-5.59,0.665c-2.609,0-4.784-0.349-6.531-1.048
	c-1.747-0.699-3.133-1.714-4.157-3.041c-1.025-1.327-1.746-2.937-2.167-4.82c-0.42-1.889-0.628-4.039-0.628-6.463V44.115z"/>
<path fill="#003B5C" d="M605.036,52.849c2.795,0,5.145,0.35,7.056,1.048c1.91,0.699,3.435,1.676,4.577,2.931
	c1.141,1.261,1.957,2.784,2.445,4.58c0.488,1.791,0.734,3.761,0.734,5.901v22.152c-1.305,0.278-3.272,0.617-5.903,1.01
	c-2.635,0.398-5.604,0.595-8.909,0.595c-2.191,0-4.192-0.207-6.011-0.628c-1.817-0.42-3.365-1.097-4.645-2.025
	c-1.283-0.934-2.285-2.145-3.006-3.636c-0.723-1.49-1.083-3.329-1.083-5.519c0-2.097,0.406-3.865,1.223-5.312
	c0.813-1.441,1.921-2.621,3.318-3.526c1.397-0.912,3.017-1.562,4.857-1.96c1.839-0.393,3.761-0.589,5.764-0.589
	c0.932,0,1.911,0.054,2.935,0.174c1.026,0.115,2.121,0.312,3.286,0.59v-1.397c0-0.977-0.117-1.905-0.35-2.795
	c-0.234-0.884-0.641-1.665-1.223-2.336c-0.584-0.677-1.354-1.201-2.307-1.572c-0.955-0.376-2.155-0.562-3.6-0.562
	c-1.954,0-3.75,0.142-5.38,0.42c-1.629,0.278-2.958,0.605-3.982,0.977l-1.048-6.846c1.07-0.371,2.631-0.748,4.682-1.119
	C600.516,53.034,602.705,52.849,605.036,52.849z M605.734,84.357c2.607,0,4.586-0.136,5.939-0.42v-9.362
	c-0.467-0.136-1.143-0.278-2.027-0.42c-0.885-0.136-1.864-0.207-2.935-0.207c-0.934,0-1.875,0.071-2.83,0.207
	c-0.956,0.142-1.815,0.399-2.585,0.77c-0.77,0.376-1.387,0.9-1.851,1.572c-0.467,0.677-0.699,1.528-0.699,2.549
	c0,2.003,0.628,3.39,1.887,4.16C601.892,83.975,603.59,84.357,605.734,84.357z"/>
<path fill="#003B5C" d="M642.906,90.995c-2.514-0.044-4.599-0.328-6.253-0.835c-1.653-0.513-2.97-1.25-3.946-2.205
	c-0.98-0.95-1.668-2.14-2.06-3.559c-0.398-1.425-0.596-3.041-0.596-4.858v-42.06l8.456-1.398v41.853
	c0,1.021,0.079,1.883,0.243,2.582c0.163,0.699,0.455,1.293,0.873,1.785c0.42,0.486,0.991,0.862,1.711,1.113
	c0.724,0.257,1.643,0.458,2.763,0.595L642.906,90.995z"/>
<path fill="#003B5C" d="M681.334,41.391c7.034,0,12.427,1.277,16.178,3.837c3.747,2.566,5.625,6.573,5.625,12.02
	c0,2.844-0.502,5.274-1.504,7.304c-1.002,2.025-2.457,3.68-4.367,4.957c-1.91,1.283-4.239,2.227-6.987,2.833
	c-2.749,0.606-5.893,0.906-9.433,0.906h-4.402v17.048h-8.803V42.575c2.05-0.464,4.32-0.781,6.812-0.944
	C676.945,41.473,679.238,41.391,681.334,41.391z M681.965,49.006c-2.235,0-4.078,0.065-5.521,0.208v16.491h4.263
	c4.239,0,7.501-0.595,9.782-1.785c2.282-1.185,3.423-3.434,3.423-6.742c0-1.583-0.303-2.91-0.906-3.979
	c-0.605-1.076-1.446-1.911-2.517-2.517c-1.072-0.606-2.342-1.037-3.808-1.294C685.213,49.131,683.641,49.006,681.965,49.006z"/>
<path fill="#003B5C" d="M731.574,61.37c-0.698-0.229-1.665-0.475-2.898-0.731c-1.236-0.257-2.67-0.388-4.299-0.388
	c-0.931,0-1.922,0.098-2.97,0.284c-1.048,0.186-1.782,0.35-2.2,0.486v29.276h-8.455V55.502c1.629-0.606,3.668-1.174,6.113-1.714
	c2.445-0.535,5.159-0.802,8.143-0.802c0.557,0,1.209,0.038,1.954,0.104c0.745,0.071,1.49,0.164,2.237,0.284
	c0.743,0.115,1.466,0.257,2.165,0.415c0.698,0.164,1.258,0.317,1.679,0.458L731.574,61.37z"/>
<path fill="#003B5C" d="M771.959,71.993c0,2.888-0.421,5.519-1.259,7.894c-0.838,2.374-2.025,4.4-3.562,6.081
	c-1.539,1.676-3.39,2.98-5.558,3.909c-2.164,0.934-4.552,1.397-7.161,1.397c-2.609,0-4.984-0.464-7.127-1.397
	c-2.143-0.928-3.983-2.233-5.519-3.909c-1.537-1.681-2.738-3.707-3.601-6.081c-0.862-2.375-1.291-5.006-1.291-7.894
	s0.429-5.508,1.291-7.86c0.862-2.353,2.074-4.367,3.636-6.043c1.559-1.682,3.412-2.97,5.555-3.881
	c2.143-0.906,4.495-1.359,7.056-1.359c2.562,0,4.926,0.453,7.094,1.359c2.164,0.912,4.018,2.2,5.554,3.881
	c1.537,1.676,2.735,3.69,3.598,6.043C771.527,66.485,771.959,69.105,771.959,71.993z M763.296,71.993
	c0-3.635-0.781-6.512-2.342-8.63c-1.562-2.118-3.739-3.177-6.534-3.177c-2.795,0-4.974,1.059-6.532,3.177
	c-1.561,2.118-2.342,4.995-2.342,8.63c0,3.679,0.781,6.589,2.342,8.734c1.559,2.14,3.737,3.209,6.532,3.209
	c2.795,0,4.973-1.07,6.534-3.209C762.515,78.581,763.296,75.672,763.296,71.993z"/>
<path fill="#003B5C" d="M813.604,72.059c0,2.795-0.363,5.36-1.084,7.685c-0.724,2.331-1.758,4.335-3.108,6.01
	c-1.352,1.676-3.041,2.981-5.066,3.914c-2.027,0.934-4.32,1.397-6.884,1.397c-1.722,0-3.308-0.207-4.751-0.628
	c-1.444-0.42-2.632-0.884-3.562-1.397v14.182h-8.456V54.945c1.723-0.469,3.844-0.912,6.36-1.332
	c2.514-0.415,5.169-0.627,7.964-0.627c2.888,0,5.473,0.442,7.757,1.326c2.282,0.89,4.229,2.156,5.833,3.811
	c1.607,1.654,2.842,3.657,3.704,6.01C813.173,66.485,813.604,69.127,813.604,72.059z M804.938,72.2c0-3.772-0.849-6.709-2.55-8.805
	c-1.7-2.096-4.438-3.144-8.21-3.144c-0.791,0-1.618,0.038-2.481,0.109c-0.863,0.066-1.712,0.219-2.55,0.453v20.891
	c0.745,0.513,1.733,0.988,2.97,1.43c1.233,0.442,2.549,0.666,3.946,0.666c3.076,0,5.323-1.048,6.745-3.144
	C804.228,78.56,804.938,75.743,804.938,72.2z"/>
<path fill="#003B5C" d="M820.31,72.2c0-3.215,0.478-6.032,1.433-8.456c0.952-2.418,2.222-4.433,3.808-6.043
	c1.583-1.605,3.398-2.817,5.45-3.63c2.048-0.818,4.143-1.223,6.289-1.223c5.03,0,8.952,1.562,11.771,4.678
	c2.82,3.123,4.229,7.779,4.229,13.975c0,0.464-0.011,0.988-0.036,1.572c-0.024,0.584-0.057,1.108-0.104,1.572h-24.107
	c0.232,2.937,1.27,5.208,3.109,6.812c1.84,1.605,4.506,2.413,8,2.413c2.05,0,3.925-0.185,5.625-0.562
	c1.7-0.371,3.041-0.77,4.018-1.185l1.119,6.916c-0.467,0.235-1.108,0.475-1.921,0.732c-0.816,0.256-1.747,0.491-2.795,0.699
	c-1.049,0.213-2.179,0.387-3.391,0.524c-1.212,0.142-2.445,0.213-3.703,0.213c-3.213,0-6.008-0.48-8.385-1.436
	c-2.375-0.956-4.332-2.282-5.869-3.979c-1.536-1.703-2.68-3.707-3.425-6.01C820.682,77.474,820.31,74.952,820.31,72.2z
	 M844.834,68.428c0-1.163-0.164-2.271-0.488-3.319c-0.325-1.048-0.803-1.955-1.434-2.724c-0.627-0.77-1.398-1.375-2.303-1.818
	c-0.909-0.442-1.993-0.666-3.251-0.666c-1.305,0-2.446,0.246-3.423,0.737c-0.979,0.486-1.807,1.13-2.481,1.921
	c-0.677,0.792-1.2,1.698-1.571,2.724c-0.374,1.026-0.628,2.074-0.77,3.144H844.834z"/>
<path fill="#003B5C" d="M883.057,61.37c-0.698-0.229-1.665-0.475-2.898-0.731c-1.236-0.257-2.67-0.388-4.299-0.388
	c-0.931,0-1.922,0.098-2.97,0.284c-1.048,0.186-1.782,0.35-2.2,0.486v29.276h-8.455V55.502c1.629-0.606,3.668-1.174,6.113-1.714
	c2.446-0.535,5.159-0.802,8.143-0.802c0.557,0,1.209,0.038,1.954,0.104c0.745,0.071,1.49,0.164,2.238,0.284
	c0.742,0.115,1.465,0.257,2.164,0.415c0.698,0.164,1.258,0.317,1.679,0.458L883.057,61.37z"/>
<path fill="#003B5C" d="M889.976,44.115l8.453-1.397v11.038h12.997v7.058h-12.997v14.881c0,2.937,0.467,5.033,1.398,6.288
	c0.931,1.255,2.517,1.889,4.752,1.889c1.537,0,2.898-0.164,4.089-0.491c1.188-0.328,2.129-0.628,2.827-0.906l1.398,6.704
	c-0.977,0.42-2.26,0.852-3.843,1.294c-1.583,0.442-3.447,0.665-5.59,0.665c-2.609,0-4.784-0.349-6.531-1.048
	c-1.747-0.699-3.134-1.714-4.157-3.041c-1.026-1.327-1.747-2.937-2.167-4.82c-0.42-1.889-0.628-4.039-0.628-6.463V44.115z"/>
<path fill="#003B5C" d="M949.436,53.755c-3.767,13.882-8.137,26.459-13.112,37.731c-0.931,2.096-1.889,3.887-2.866,5.377
	c-0.98,1.49-2.077,2.729-3.289,3.706c-1.212,0.977-2.565,1.687-4.056,2.129c-1.493,0.442-3.218,0.666-5.178,0.666
	c-1.305,0-2.599-0.142-3.881-0.421c-1.283-0.278-2.249-0.584-2.904-0.906l1.539-6.78c1.685,0.65,3.347,0.977,4.984,0.977
	c2.197,0,3.916-0.524,5.158-1.572c1.239-1.048,2.325-2.664,3.265-4.853c-2.67-5.126-5.229-10.716-7.687-16.77
	c-2.456-6.054-4.643-12.484-6.562-19.286h9.016c0.467,1.954,1.04,4.078,1.717,6.359c0.68,2.282,1.417,4.602,2.211,6.949
	c0.794,2.353,1.635,4.695,2.524,7.025c0.887,2.326,1.777,4.493,2.667,6.496c1.481-4.143,2.874-8.56,4.173-13.238
	c1.297-4.684,2.481-9.214,3.546-13.592H949.436z"/>
<path fill="#003B5C" d="M442.202,197.77c5.319,0,9.195-0.9,11.622-2.702c2.423-1.796,3.638-4.34,3.638-7.631
	c0-1.954-0.409-3.636-1.233-5.044c-0.821-1.408-1.995-2.68-3.521-3.815c-1.525-1.136-3.384-2.189-5.576-3.172
	c-2.191-0.977-4.694-1.938-7.511-2.877c-2.817-1.015-5.538-2.129-8.158-3.341c-2.623-1.217-4.933-2.718-6.928-4.52
	c-1.995-1.802-3.6-3.952-4.811-6.458c-1.215-2.505-1.82-5.519-1.82-9.04c0-7.353,2.543-13.129,7.631-17.315
	c5.085-4.187,12.013-6.278,20.776-6.278c5.088,0,9.607,0.568,13.559,1.698c3.95,1.135,7.062,2.369,9.332,3.701l-4.577,11.971
	c-2.664-1.485-5.576-2.62-8.748-3.401c-3.169-0.781-6.436-1.174-9.801-1.174c-3.99,0-7.103,0.819-9.332,2.462
	c-2.229,1.643-3.347,3.952-3.347,6.927c0,1.802,0.371,3.346,1.117,4.635c0.742,1.294,1.798,2.451,3.168,3.466
	c1.37,1.015,2.976,1.954,4.816,2.817c1.837,0.862,3.851,1.681,6.043,2.467c3.834,1.408,7.26,2.833,10.273,4.28
	c3.01,1.452,5.554,3.171,7.628,5.169c2.075,1.992,3.658,4.34,4.755,7.042c1.095,2.696,1.643,5.966,1.643,9.798
	c0,7.358-2.602,13.052-7.807,17.081c-5.205,4.034-12.814,6.049-22.831,6.049c-3.365,0-6.438-0.219-9.215-0.649
	c-2.778-0.432-5.243-0.956-7.397-1.584c-2.153-0.622-4.01-1.271-5.576-1.938c-1.564-0.66-2.816-1.271-3.756-1.817l4.346-12.092
	c2.112,1.174,4.967,2.348,8.567,3.521C432.771,197.18,437.114,197.77,442.202,197.77z"/>
<path fill="#003B5C" d="M544.678,178.047c0,4.853-0.704,9.274-2.112,13.265c-1.408,3.99-3.403,7.397-5.985,10.213
	c-2.582,2.816-5.694,5.006-9.332,6.572c-3.642,1.566-7.65,2.348-12.034,2.348c-4.384,0-8.374-0.781-11.972-2.348
	c-3.603-1.566-6.692-3.756-9.274-6.572c-2.582-2.816-4.599-6.223-6.046-10.213c-1.449-3.991-2.172-8.412-2.172-13.265
	s0.723-9.253,2.172-13.205c1.447-3.952,3.48-7.336,6.104-10.153c2.623-2.816,5.731-4.989,9.335-6.518
	c3.597-1.523,7.549-2.288,11.853-2.288c4.304,0,8.275,0.765,11.917,2.288c3.638,1.528,6.749,3.701,9.331,6.518
	c2.582,2.817,4.597,6.201,6.046,10.153C543.954,168.794,544.678,173.194,544.678,178.047z M530.122,178.047
	c0-6.103-1.311-10.934-3.931-14.499c-2.623-3.559-6.28-5.339-10.978-5.339c-4.694,0-8.354,1.78-10.976,5.339
	c-2.622,3.564-3.933,8.396-3.933,14.499c0,6.185,1.31,11.076,3.933,14.673c2.621,3.603,6.281,5.399,10.976,5.399
	c4.697,0,8.354-1.796,10.978-5.399C528.811,189.123,530.122,184.232,530.122,178.047z"/>
<path fill="#003B5C" d="M584.707,209.976c-4.225-0.076-7.729-0.546-10.505-1.408c-2.779-0.857-4.989-2.091-6.633-3.695
	c-1.643-1.605-2.801-3.598-3.464-5.989c-0.666-2.385-0.996-5.104-0.996-8.155v-70.67l14.204-2.347v70.315
	c0,1.719,0.134,3.171,0.409,4.345c0.273,1.173,0.765,2.167,1.469,2.991c0.704,0.819,1.662,1.447,2.874,1.878
	c1.215,0.432,2.759,0.764,4.637,0.999L584.707,209.976z"/>
<path fill="#003B5C" d="M652.558,206.924c-2.74,0.704-6.3,1.431-10.683,2.173c-4.384,0.742-9.195,1.113-14.439,1.113
	c-4.93,0-9.059-0.704-12.384-2.112c-3.327-1.408-5.985-3.362-7.983-5.868c-1.995-2.506-3.423-5.497-4.282-8.98
	c-0.862-3.482-1.291-7.298-1.291-11.447v-34.391H615.7v32.163c0,6.573,0.955,11.267,2.874,14.084
	c1.916,2.817,5.262,4.226,10.036,4.226c1.722,0,3.54-0.077,5.458-0.235c1.919-0.152,3.347-0.349,4.285-0.584v-49.653h14.204V206.924
	z"/>
<path fill="#003B5C" d="M673.921,131.21l14.204-2.347v18.549h21.832v11.851h-21.832v25.007c0,4.929,0.78,8.45,2.347,10.563
	c1.564,2.112,4.226,3.171,7.981,3.171c2.582,0,4.872-0.272,6.867-0.824c1.995-0.546,3.581-1.054,4.754-1.523l2.348,11.267
	c-1.643,0.704-3.797,1.431-6.455,2.173c-2.661,0.742-5.792,1.113-9.392,1.113c-4.384,0-8.041-0.584-10.976-1.758
	c-2.934-1.173-5.265-2.876-6.984-5.109c-1.722-2.227-2.934-4.929-3.638-8.101c-0.704-3.166-1.057-6.785-1.057-10.857V131.21z"/>
<path fill="#003B5C" d="M743.532,129.447c0,2.664-0.863,4.777-2.582,6.338c-1.723,1.567-3.759,2.352-6.106,2.352
	c-2.426,0-4.5-0.786-6.22-2.352c-1.723-1.561-2.582-3.674-2.582-6.338c0-2.735,0.859-4.891,2.582-6.457
	c1.72-1.562,3.794-2.347,6.22-2.347c2.348,0,4.384,0.786,6.106,2.347C742.669,124.556,743.532,126.712,743.532,129.447z
	 M742.006,208.802h-14.203v-61.39h14.203V208.802z"/>
<path fill="#003B5C" d="M819.595,178.047c0,4.853-0.704,9.274-2.112,13.265c-1.408,3.99-3.403,7.397-5.985,10.213
	c-2.582,2.816-5.693,5.006-9.332,6.572c-3.641,1.566-7.65,2.348-12.034,2.348c-4.383,0-8.373-0.781-11.971-2.348
	c-3.604-1.566-6.692-3.756-9.274-6.572c-2.582-2.816-4.6-6.223-6.046-10.213c-1.449-3.991-2.173-8.412-2.173-13.265
	s0.724-9.253,2.173-13.205c1.446-3.952,3.479-7.336,6.103-10.153c2.623-2.816,5.732-4.989,9.335-6.518
	c3.598-1.523,7.55-2.288,11.854-2.288c4.305,0,8.275,0.765,11.917,2.288c3.639,1.528,6.75,3.701,9.332,6.518
	c2.582,2.817,4.596,6.201,6.046,10.153C818.872,168.794,819.595,173.194,819.595,178.047z M805.039,178.047
	c0-6.103-1.31-10.934-3.931-14.499c-2.622-3.559-6.28-5.339-10.978-5.339c-4.694,0-8.354,1.78-10.975,5.339
	c-2.623,3.564-3.934,8.396-3.934,14.499c0,6.185,1.311,11.076,3.934,14.673c2.62,3.603,6.28,5.399,10.975,5.399
	c4.697,0,8.355-1.796,10.978-5.399C803.729,189.123,805.039,184.232,805.039,178.047z"/>
<path fill="#003B5C" d="M838.259,149.404c2.737-0.78,6.297-1.523,10.681-2.227c4.383-0.704,9.233-1.059,14.556-1.059
	c5.009,0,9.195,0.688,12.561,2.053c3.365,1.37,6.046,3.286,8.041,5.753s3.403,5.442,4.227,8.92
	c0.822,3.482,1.232,7.298,1.232,11.447v34.511h-14.204v-32.278c0-3.292-0.216-6.086-0.645-8.396
	c-0.431-2.309-1.135-4.187-2.115-5.634c-0.977-1.446-2.309-2.505-3.99-3.171c-1.684-0.661-3.736-0.999-6.163-0.999
	c-1.801,0-3.679,0.12-5.633,0.355c-1.957,0.234-3.404,0.431-4.343,0.584v49.539h-14.204V149.404z"/>
<path fill="#003B5C" d="M926.299,198.589c3.756,0,6.493-0.448,8.216-1.349c1.722-0.901,2.582-2.446,2.582-4.635
	c0-2.036-0.92-3.717-2.757-5.049c-1.84-1.332-4.872-2.778-9.098-4.345c-2.584-0.939-4.951-1.938-7.102-2.991
	c-2.153-1.059-4.013-2.288-5.576-3.696c-1.566-1.414-2.801-3.111-3.698-5.109c-0.9-1.993-1.352-4.438-1.352-7.337
	c0-5.633,2.075-10.077,6.224-13.325c4.146-3.243,9.782-4.87,16.903-4.87c3.597,0,7.042,0.333,10.33,0.999
	c3.287,0.666,5.751,1.31,7.394,1.938l-2.582,11.502c-1.566-0.704-3.562-1.349-5.985-1.938c-2.427-0.584-5.246-0.879-8.453-0.879
	c-2.897,0-5.243,0.491-7.042,1.468c-1.802,0.977-2.702,2.484-2.702,4.52c0,1.015,0.178,1.916,0.529,2.697
	c0.353,0.786,0.958,1.506,1.82,2.172c0.86,0.666,1.995,1.332,3.404,1.998c1.408,0.666,3.128,1.348,5.164,2.053
	c3.365,1.25,6.223,2.483,8.57,3.695c2.347,1.217,4.282,2.582,5.811,4.111c1.525,1.523,2.64,3.27,3.344,5.224
	c0.704,1.954,1.056,4.301,1.056,7.042c0,5.868-2.169,10.311-6.515,13.325c-4.343,3.008-10.547,4.52-18.604,4.52
	c-5.401,0-9.744-0.453-13.03-1.354c-3.286-0.895-5.598-1.621-6.928-2.167l2.465-11.857c2.115,0.862,4.638,1.681,7.571,2.462
	C919.197,198.201,922.54,198.589,926.299,198.589z"/>
<rect x="218.007" y="483.912" fill="#00F156" width="161.689" height="11.979"/>
<path fill="#00F156" d="M223.996,478.672h58.035v-57.31c0-9.291,7.528-16.82,16.817-16.82c9.292,0,16.82,7.529,16.82,16.82v57.31
	h58.037V375.107h20.96l-95.814-109.286l-40.966,46.726v-15.111h-25.452v44.142l-29.396,33.53h20.959V478.672z M337.263,465.592
	v-12.358h25.695v12.358H337.263z M362.958,417.699v34.133h-25.695v-34.133H362.958z M300.431,355.627h28.312v24.906h-28.312V355.627
	z M300.431,381.936h28.312v13.359h-28.312V381.936z M266.613,355.627h32.416v24.906h-32.416V355.627z M266.613,381.936h32.416
	v13.359h-32.416V381.936z M234.474,417.699h25.698v34.133h-25.698V417.699z M234.474,453.233h25.698v12.358h-25.698V453.233z"/>
<path fill="#00F156" d="M437.977,306.322c7.055,0,12.465,1.28,16.226,3.849c3.759,2.573,5.643,6.592,5.643,12.057
	c0,2.853-0.504,5.289-1.508,7.326c-1.005,2.031-2.464,3.69-4.381,4.971c-1.916,1.287-4.251,2.234-7.008,2.842
	c-2.757,0.608-5.911,0.909-9.462,0.909h-4.415v17.1h-8.829V307.51c2.056-0.465,4.333-0.783,6.833-0.947
	C433.575,306.404,435.875,306.322,437.977,306.322z M438.61,313.96c-2.242,0-4.09,0.065-5.538,0.208v16.541h4.275
	c4.252,0,7.523-0.598,9.812-1.791c2.288-1.188,3.433-3.443,3.433-6.762c0-1.588-0.304-2.918-0.909-3.991
	c-0.607-1.079-1.451-1.917-2.523-2.524c-1.076-0.607-2.35-1.04-3.819-1.298C441.868,314.086,440.291,313.96,438.61,313.96z"/>
<path fill="#00F156" d="M476.942,308.003c0,1.588-0.515,2.847-1.541,3.783c-1.029,0.937-2.242,1.401-3.645,1.401
	c-1.448,0-2.688-0.465-3.715-1.401c-1.029-0.936-1.541-2.195-1.541-3.783c0-1.638,0.512-2.919,1.541-3.854
	c1.027-0.937,2.267-1.402,3.715-1.402c1.402,0,2.615,0.466,3.645,1.402C476.428,305.084,476.942,306.365,476.942,308.003z
	 M476.03,355.375h-8.478v-36.651h8.478V355.375z"/>
<path fill="#00F156" d="M496.27,355.375c-2.346-4.814-4.749-10.338-7.213-16.574c-2.464-6.236-4.703-12.927-6.719-20.077h9.043
	c0.517,2.059,1.114,4.265,1.793,6.625c0.682,2.359,1.407,4.72,2.182,7.073c0.775,2.36,1.571,4.649,2.392,6.872
	c0.821,2.218,1.585,4.216,2.289,5.99c0.703-1.774,1.453-3.772,2.25-5.99c0.797-2.223,1.585-4.512,2.357-6.872
	c0.774-2.354,1.514-4.714,2.218-7.073c0.703-2.36,1.314-4.566,1.828-6.625h8.764c-2.018,7.15-4.258,13.841-6.722,20.077
	c-2.464,6.236-4.867,11.761-7.21,16.574H496.27z"/>
<path fill="#00F156" d="M555.997,337.016c0,2.897-0.422,5.536-1.263,7.918c-0.84,2.382-2.031,4.413-3.572,6.1
	c-1.544,1.681-3.4,2.989-5.573,3.92c-2.172,0.937-4.566,1.401-7.184,1.401s-4.999-0.465-7.148-1.401
	c-2.149-0.931-3.994-2.239-5.535-3.92c-1.542-1.687-2.746-3.718-3.611-6.1c-0.865-2.382-1.295-5.021-1.295-7.918
	c0-2.896,0.43-5.524,1.295-7.884c0.865-2.36,2.081-4.38,3.646-6.062c1.564-1.686,3.422-2.978,5.571-3.893
	c2.149-0.909,4.509-1.363,7.077-1.363c2.57,0,4.941,0.454,7.114,1.363c2.171,0.914,4.03,2.206,5.571,3.893
	c1.541,1.682,2.743,3.701,3.608,6.062C555.565,331.491,555.997,334.12,555.997,337.016z M547.308,337.016
	c0-3.647-0.783-6.531-2.349-8.656c-1.566-2.124-3.751-3.187-6.554-3.187c-2.804,0-4.988,1.062-6.552,3.187
	c-1.565,2.125-2.349,5.01-2.349,8.656c0,3.69,0.783,6.609,2.349,8.761c1.563,2.146,3.748,3.22,6.552,3.22
	c2.803,0,4.987-1.073,6.554-3.22C546.524,343.625,547.308,340.706,547.308,337.016z"/>
<path fill="#00F156" d="M564.336,309.054l8.479-1.401v11.071h13.036v7.079h-13.036v14.926c0,2.945,0.468,5.048,1.401,6.308
	c0.934,1.259,2.524,1.895,4.767,1.895c1.541,0,2.907-0.165,4.101-0.493c1.19-0.328,2.136-0.63,2.836-0.909l1.401,6.724
	c-0.98,0.422-2.267,0.855-3.855,1.298c-1.588,0.443-3.457,0.668-5.606,0.668c-2.617,0-4.799-0.351-6.551-1.051
	c-1.752-0.701-3.143-1.72-4.17-3.05c-1.029-1.331-1.752-2.946-2.174-4.835c-0.421-1.895-0.629-4.052-0.629-6.482V309.054z"/>
<path fill="#00F156" d="M606.246,317.814c2.803,0,5.16,0.351,7.076,1.051c1.917,0.701,3.447,1.682,4.592,2.94
	c1.145,1.265,1.963,2.793,2.453,4.594c0.489,1.796,0.736,3.773,0.736,5.919v22.219c-1.309,0.279-3.283,0.618-5.922,1.013
	c-2.642,0.399-5.62,0.597-8.935,0.597c-2.198,0-4.205-0.208-6.028-0.63c-1.823-0.421-3.376-1.101-4.659-2.031
	c-1.287-0.936-2.292-2.151-3.015-3.646c-0.726-1.494-1.087-3.34-1.087-5.535c0-2.102,0.408-3.877,1.227-5.327
	c0.816-1.446,1.928-2.629,3.329-3.537c1.401-0.915,3.025-1.566,4.87-1.966c1.846-0.395,3.772-0.592,5.782-0.592
	c0.934,0,1.916,0.055,2.942,0.176c1.029,0.115,2.128,0.311,3.297,0.591v-1.401c0-0.98-0.118-1.911-0.351-2.804
	c-0.235-0.887-0.644-1.67-1.227-2.343c-0.586-0.679-1.358-1.205-2.313-1.577c-0.958-0.378-2.162-0.563-3.611-0.563
	c-1.96,0-3.761,0.142-5.396,0.421c-1.634,0.279-2.968,0.608-3.994,0.98l-1.051-6.866c1.073-0.372,2.639-0.75,4.694-1.122
	C601.713,318.001,603.908,317.814,606.246,317.814z M606.947,349.418c2.614,0,4.599-0.138,5.957-0.422v-9.391
	c-0.469-0.137-1.148-0.279-2.034-0.421c-0.888-0.137-1.87-0.208-2.943-0.208c-0.937,0-1.881,0.071-2.839,0.208
	c-0.958,0.142-1.82,0.399-2.593,0.771c-0.771,0.378-1.391,0.903-1.855,1.577c-0.469,0.679-0.701,1.533-0.701,2.557
	c0,2.01,0.63,3.4,1.892,4.173C603.092,349.034,604.795,349.418,606.947,349.418z"/>
<path fill="#00F156" d="M644.23,356.075c-2.521-0.044-4.613-0.328-6.271-0.838c-1.659-0.515-2.979-1.253-3.959-2.212
	c-0.982-0.952-1.673-2.146-2.066-3.569c-0.4-1.43-0.598-3.05-0.598-4.873v-42.187l8.482-1.402v41.979c0,1.024,0.079,1.89,0.244,2.59
	c0.164,0.701,0.457,1.298,0.876,1.791c0.422,0.487,0.993,0.865,1.717,1.117c0.725,0.257,1.647,0.46,2.769,0.597L644.23,356.075z"/>
<path fill="#00F156" d="M682.773,306.322c7.055,0,12.465,1.28,16.227,3.849c3.759,2.573,5.642,6.592,5.642,12.057
	c0,2.853-0.503,5.289-1.508,7.326c-1.005,2.031-2.464,3.69-4.381,4.971c-1.916,1.287-4.251,2.234-7.008,2.842
	c-2.757,0.608-5.911,0.909-9.462,0.909h-4.415v17.1h-8.829V307.51c2.056-0.465,4.334-0.783,6.833-0.947
	C678.371,306.404,680.671,306.322,682.773,306.322z M683.406,313.96c-2.242,0-4.09,0.065-5.538,0.208v16.541h4.276
	c4.251,0,7.523-0.598,9.812-1.791c2.288-1.188,3.433-3.443,3.433-6.762c0-1.588-0.304-2.918-0.909-3.991
	c-0.607-1.079-1.45-1.917-2.523-2.524c-1.076-0.607-2.35-1.04-3.819-1.298C686.664,314.086,685.087,313.96,683.406,313.96z"/>
<path fill="#00F156" d="M733.165,326.361c-0.7-0.23-1.67-0.477-2.907-0.733c-1.24-0.258-2.678-0.389-4.312-0.389
	c-0.934,0-1.928,0.098-2.979,0.284c-1.052,0.187-1.788,0.351-2.207,0.487v29.364h-8.48v-34.899c1.634-0.608,3.679-1.178,6.132-1.72
	c2.453-0.536,5.174-0.805,8.166-0.805c0.559,0,1.213,0.038,1.961,0.104c0.747,0.07,1.494,0.164,2.244,0.284
	c0.745,0.115,1.471,0.258,2.171,0.416c0.701,0.164,1.263,0.317,1.684,0.46L733.165,326.361z"/>
<path fill="#00F156" d="M773.671,337.016c0,2.897-0.421,5.536-1.262,7.918s-2.031,4.413-3.572,6.1
	c-1.544,1.681-3.4,2.989-5.574,3.92c-2.171,0.937-4.566,1.401-7.184,1.401c-2.617,0-4.999-0.465-7.148-1.401
	c-2.149-0.931-3.994-2.239-5.536-3.92c-1.541-1.687-2.745-3.718-3.61-6.1c-0.865-2.382-1.295-5.021-1.295-7.918
	c0-2.896,0.43-5.524,1.295-7.884c0.865-2.36,2.08-4.38,3.646-6.062c1.562-1.686,3.422-2.978,5.57-3.893
	c2.149-0.909,4.51-1.363,7.077-1.363c2.57,0,4.941,0.454,7.115,1.363c2.171,0.914,4.03,2.206,5.571,3.893
	c1.541,1.682,2.743,3.701,3.607,6.062C773.238,331.491,773.671,334.12,773.671,337.016z M764.982,337.016
	c0-3.647-0.783-6.531-2.35-8.656c-1.565-2.124-3.75-3.187-6.554-3.187s-4.988,1.062-6.551,3.187
	c-1.566,2.125-2.349,5.01-2.349,8.656c0,3.69,0.782,6.609,2.349,8.761c1.562,2.146,3.747,3.22,6.551,3.22s4.988-1.073,6.554-3.22
	C764.199,343.625,764.982,340.706,764.982,337.016z"/>
<path fill="#00F156" d="M815.441,337.082c0,2.803-0.363,5.376-1.086,7.709c-0.726,2.338-1.764,4.348-3.118,6.028
	c-1.356,1.681-3.05,2.989-5.081,3.926c-2.034,0.936-4.334,1.401-6.904,1.401c-1.728,0-3.318-0.208-4.767-0.63
	c-1.448-0.421-2.639-0.887-3.572-1.401v14.225h-8.482v-48.423c1.728-0.471,3.854-0.914,6.379-1.336
	c2.521-0.416,5.185-0.63,7.988-0.63c2.896,0,5.488,0.443,7.78,1.33c2.288,0.893,4.24,2.163,5.851,3.822
	c1.612,1.659,2.85,3.668,3.715,6.028C815.01,331.491,815.441,334.142,815.441,337.082z M806.75,337.225
	c0-3.784-0.852-6.73-2.557-8.832c-1.706-2.103-4.452-3.153-8.235-3.153c-0.794,0-1.623,0.038-2.488,0.109
	c-0.865,0.065-1.717,0.219-2.557,0.454v20.954c0.747,0.515,1.738,0.991,2.979,1.435c1.237,0.443,2.557,0.668,3.958,0.668
	c3.086,0,5.339-1.052,6.765-3.154C806.038,343.603,806.75,340.777,806.75,337.225z"/>
<path fill="#00F156" d="M822.168,337.225c0-3.226,0.479-6.051,1.437-8.481c0.955-2.426,2.229-4.446,3.819-6.062
	c1.588-1.609,3.408-2.825,5.467-3.641c2.054-0.821,4.155-1.227,6.308-1.227c5.045,0,8.979,1.565,11.808,4.692
	c2.827,3.132,4.24,7.802,4.24,14.017c0,0.465-0.011,0.991-0.036,1.577c-0.024,0.585-0.057,1.111-0.104,1.576h-24.179
	c0.232,2.946,1.272,5.224,3.118,6.833c1.845,1.61,4.52,2.421,8.023,2.421c2.057,0,3.938-0.187,5.643-0.565
	c1.706-0.372,3.05-0.771,4.03-1.188l1.122,6.938c-0.468,0.235-1.111,0.477-1.928,0.733c-0.818,0.258-1.752,0.493-2.803,0.701
	c-1.051,0.214-2.185,0.389-3.4,0.525c-1.215,0.143-2.453,0.214-3.715,0.214c-3.223,0-6.025-0.482-8.41-1.44
	c-2.382-0.958-4.345-2.288-5.886-3.991c-1.541-1.708-2.688-3.718-3.435-6.028C822.541,342.514,822.168,339.983,822.168,337.225z
	 M846.766,333.44c0-1.166-0.164-2.277-0.49-3.329c-0.325-1.051-0.805-1.96-1.437-2.731c-0.63-0.772-1.402-1.38-2.311-1.823
	c-0.912-0.443-1.999-0.668-3.261-0.668c-1.309,0-2.453,0.246-3.434,0.739c-0.982,0.487-1.812,1.133-2.488,1.927
	c-0.679,0.794-1.204,1.703-1.576,2.732c-0.375,1.029-0.63,2.08-0.772,3.153H846.766z"/>
<path fill="#00F156" d="M885.103,326.361c-0.701-0.23-1.67-0.477-2.907-0.733c-1.24-0.258-2.678-0.389-4.312-0.389
	c-0.934,0-1.928,0.098-2.979,0.284c-1.052,0.187-1.788,0.351-2.207,0.487v29.364h-8.48v-34.899c1.634-0.608,3.679-1.178,6.132-1.72
	c2.453-0.536,5.174-0.805,8.166-0.805c0.559,0,1.213,0.038,1.96,0.104c0.748,0.07,1.495,0.164,2.245,0.284
	c0.745,0.115,1.471,0.258,2.171,0.416c0.701,0.164,1.263,0.317,1.684,0.46L885.103,326.361z"/>
<path fill="#00F156" d="M892.044,309.054l8.478-1.401v11.071h13.037v7.079h-13.037v14.926c0,2.945,0.469,5.048,1.402,6.308
	c0.934,1.259,2.523,1.895,4.766,1.895c1.542,0,2.908-0.165,4.102-0.493c1.19-0.328,2.135-0.63,2.836-0.909l1.401,6.724
	c-0.979,0.422-2.267,0.855-3.854,1.298c-1.588,0.443-3.457,0.668-5.606,0.668c-2.617,0-4.799-0.351-6.551-1.051
	c-1.753-0.701-3.144-1.72-4.17-3.05c-1.029-1.331-1.752-2.946-2.174-4.835c-0.421-1.895-0.629-4.052-0.629-6.482V309.054z"/>
<path fill="#00F156" d="M951.683,318.724c-3.777,13.923-8.161,26.538-13.151,37.845c-0.934,2.103-1.895,3.898-2.875,5.393
	c-0.982,1.495-2.083,2.738-3.299,3.718c-1.215,0.98-2.573,1.692-4.067,2.136c-1.498,0.443-3.227,0.668-5.193,0.668
	c-1.309,0-2.607-0.142-3.894-0.422c-1.286-0.279-2.256-0.586-2.912-0.908l1.544-6.801c1.688,0.651,3.356,0.98,4.999,0.98
	c2.203,0,3.928-0.526,5.174-1.577c1.243-1.052,2.332-2.672,3.274-4.867c-2.678-5.142-5.245-10.748-7.709-16.82
	c-2.464-6.072-4.657-12.522-6.582-19.344h9.043c0.468,1.96,1.043,4.09,1.722,6.378c0.682,2.289,1.421,4.616,2.218,6.971
	c0.796,2.359,1.64,4.708,2.532,7.046c0.89,2.333,1.782,4.507,2.675,6.516c1.486-4.155,2.883-8.585,4.185-13.277
	c1.301-4.697,2.488-9.242,3.556-13.633H951.683z"/>
<path fill="#00F156" d="M442.922,463.172c5.336,0,9.223-0.904,11.657-2.711c2.431-1.801,3.648-4.353,3.648-7.654
	c0-1.96-0.41-3.646-1.237-5.058c-0.824-1.413-2.001-2.689-3.531-3.827c-1.53-1.14-3.395-2.196-5.593-3.182
	c-2.198-0.98-4.709-1.943-7.534-2.886c-2.825-1.018-5.555-2.135-8.183-3.351c-2.631-1.221-4.947-2.727-6.948-4.533
	c-2.001-1.807-3.611-3.964-4.826-6.478c-1.219-2.513-1.826-5.535-1.826-9.067c0-7.375,2.552-13.168,7.654-17.367
	c5.101-4.199,12.048-6.297,20.839-6.297c5.103,0,9.637,0.57,13.601,1.703c3.961,1.139,7.082,2.376,9.36,3.712l-4.592,12.008
	c-2.672-1.489-5.593-2.628-8.773-3.411c-3.179-0.783-6.456-1.178-9.831-1.178c-4.003,0-7.123,0.821-9.36,2.47
	c-2.236,1.648-3.357,3.964-3.357,6.948c0,1.807,0.373,3.356,1.12,4.648c0.744,1.298,1.804,2.458,3.179,3.477
	c1.374,1.019,2.983,1.96,4.829,2.825c1.842,0.865,3.862,1.686,6.06,2.475c3.847,1.413,7.282,2.842,10.305,4.293
	c3.019,1.456,5.571,3.182,7.651,5.185c2.081,1.998,3.669,4.353,4.77,7.062c1.098,2.705,1.648,5.984,1.648,9.828
	c0,7.381-2.608,13.092-7.829,17.132c-5.221,4.047-12.854,6.067-22.9,6.067c-3.376,0-6.458-0.22-9.242-0.652
	c-2.787-0.433-5.259-0.958-7.419-1.588c-2.16-0.624-4.021-1.275-5.593-1.943c-1.569-0.662-2.825-1.275-3.768-1.823l4.358-12.128
	c2.119,1.178,4.982,2.354,8.594,3.532C433.463,462.58,437.819,463.172,442.922,463.172z"/>
<path fill="#00F156" d="M545.706,443.39c0,4.867-0.706,9.302-2.119,13.305c-1.412,4.002-3.413,7.419-6.003,10.244
	c-2.59,2.825-5.711,5.02-9.36,6.592c-3.652,1.572-7.674,2.354-12.07,2.354c-4.396,0-8.399-0.782-12.007-2.354
	c-3.614-1.571-6.713-3.767-9.303-6.592c-2.59-2.825-4.613-6.242-6.063-10.244c-1.454-4.003-2.18-8.438-2.18-13.305
	c0-4.868,0.726-9.281,2.18-13.245c1.45-3.964,3.49-7.358,6.121-10.184c2.631-2.825,5.749-5.005,9.362-6.538
	c3.608-1.527,7.572-2.294,11.89-2.294c4.317,0,8.301,0.767,11.952,2.294c3.649,1.533,6.771,3.713,9.36,6.538
	c2.59,2.825,4.61,6.22,6.064,10.184C544.98,434.108,545.706,438.521,545.706,443.39z M531.106,443.39
	c0-6.122-1.314-10.967-3.942-14.543c-2.631-3.569-6.299-5.354-11.011-5.354c-4.709,0-8.38,1.785-11.008,5.354
	c-2.631,3.576-3.945,8.421-3.945,14.543c0,6.203,1.314,11.109,3.945,14.717c2.628,3.614,6.299,5.415,11.008,5.415
	c4.712,0,8.38-1.801,11.011-5.415C529.792,454.499,531.106,449.593,531.106,443.39z"/>
<path fill="#00F156" d="M585.856,475.414c-4.238-0.076-7.753-0.548-10.537-1.412c-2.787-0.86-5.005-2.098-6.652-3.707
	c-1.648-1.609-2.81-3.608-3.475-6.007c-0.668-2.393-0.999-5.119-0.999-8.18v-70.883l14.246-2.354v70.527
	c0,1.725,0.135,3.181,0.411,4.358c0.273,1.177,0.767,2.173,1.473,3c0.706,0.821,1.667,1.451,2.883,1.884
	c1.219,0.433,2.767,0.767,4.651,1.002L585.856,475.414z"/>
<path fill="#00F156" d="M653.911,472.353c-2.749,0.706-6.318,1.435-10.716,2.179c-4.397,0.745-9.223,1.117-14.481,1.117
	c-4.944,0-9.086-0.706-12.421-2.119c-3.337-1.412-6.004-3.372-8.008-5.886c-2.001-2.513-3.433-5.514-4.295-9.007
	c-0.865-3.493-1.295-7.32-1.295-11.481v-34.494h14.246v32.261c0,6.592,0.959,11.301,2.883,14.126
	c1.922,2.825,5.278,4.237,10.066,4.237c1.728,0,3.551-0.076,5.476-0.235c1.925-0.153,3.356-0.351,4.298-0.586v-49.803h14.247
	V472.353z"/>
<path fill="#00F156" d="M675.338,396.412l14.247-2.355v18.605h21.898v11.887h-21.898v25.082c0,4.944,0.783,8.476,2.354,10.595
	c1.568,2.119,4.237,3.182,8.005,3.182c2.59,0,4.887-0.274,6.888-0.827c2.001-0.548,3.592-1.057,4.769-1.527l2.354,11.301
	c-1.648,0.706-3.808,1.435-6.475,2.179c-2.669,0.745-5.809,1.117-9.42,1.117c-4.396,0-8.064-0.586-11.008-1.763
	c-2.943-1.178-5.281-2.886-7.006-5.125c-1.728-2.234-2.942-4.944-3.649-8.125c-0.706-3.176-1.06-6.806-1.06-10.891V396.412z"/>
<path fill="#00F156" d="M745.159,394.644c0,2.672-0.865,4.79-2.59,6.356c-1.727,1.571-3.771,2.359-6.124,2.359
	c-2.435,0-4.515-0.788-6.239-2.359c-1.728-1.566-2.59-3.685-2.59-6.356c0-2.743,0.862-4.906,2.59-6.478
	c1.725-1.566,3.805-2.354,6.239-2.354c2.353,0,4.396,0.788,6.124,2.354C744.294,389.737,745.159,391.9,745.159,394.644z
	 M743.629,474.237h-14.247v-61.575h14.247V474.237z"/>
<path fill="#00F156" d="M821.451,443.39c0,4.867-0.706,9.302-2.119,13.305c-1.412,4.002-3.414,7.419-6.004,10.244
	c-2.59,2.825-5.71,5.02-9.359,6.592c-3.652,1.572-7.674,2.354-12.07,2.354c-4.396,0-8.399-0.782-12.008-2.354
	c-3.613-1.571-6.712-3.767-9.302-6.592c-2.59-2.825-4.613-6.242-6.065-10.244c-1.453-4.003-2.179-8.438-2.179-13.305
	c0-4.868,0.726-9.281,2.179-13.245c1.451-3.964,3.491-7.358,6.122-10.184c2.631-2.825,5.749-5.005,9.362-6.538
	c3.608-1.527,7.572-2.294,11.89-2.294c4.317,0,8.301,0.767,11.952,2.294c3.649,1.533,6.771,3.713,9.36,6.538
	c2.59,2.825,4.61,6.22,6.063,10.184C820.726,434.108,821.451,438.521,821.451,443.39z M806.852,443.39
	c0-6.122-1.314-10.967-3.942-14.543c-2.631-3.569-6.3-5.354-11.011-5.354c-4.709,0-8.38,1.785-11.008,5.354
	c-2.631,3.576-3.945,8.421-3.945,14.543c0,6.203,1.314,11.109,3.945,14.717c2.628,3.614,6.299,5.415,11.008,5.415
	c4.711,0,8.38-1.801,11.011-5.415C805.537,454.499,806.852,449.593,806.852,443.39z"/>
<path fill="#00F156" d="M840.171,414.661c2.746-0.783,6.315-1.528,10.712-2.234c4.398-0.706,9.262-1.062,14.601-1.062
	c5.023,0,9.223,0.69,12.599,2.059c3.375,1.375,6.064,3.297,8.065,5.771c2.002,2.475,3.414,5.459,4.241,8.946
	c0.823,3.493,1.234,7.32,1.234,11.482v34.615h-14.247v-32.376c0-3.301-0.216-6.104-0.646-8.421c-0.433-2.315-1.139-4.199-2.122-5.65
	c-0.979-1.45-2.316-2.513-4.002-3.181c-1.689-0.663-3.748-1.002-6.182-1.002c-1.807,0-3.69,0.12-5.65,0.355
	c-1.963,0.235-3.414,0.433-4.355,0.586v49.689h-14.247V414.661z"/>
<path fill="#00F156" d="M928.476,463.993c3.768,0,6.513-0.449,8.24-1.353c1.728-0.903,2.59-2.453,2.59-4.648
	c0-2.043-0.922-3.728-2.765-5.064c-1.846-1.337-4.887-2.787-9.125-4.358c-2.592-0.942-4.966-1.944-7.123-3.001
	c-2.16-1.062-4.024-2.294-5.593-3.707c-1.571-1.418-2.809-3.12-3.71-5.124c-0.903-1.999-1.354-4.452-1.354-7.359
	c0-5.65,2.08-10.107,6.241-13.365c4.159-3.252,9.812-4.884,16.955-4.884c3.607,0,7.062,0.334,10.361,1.002
	c3.296,0.668,5.768,1.314,7.416,1.944l-2.59,11.536c-1.571-0.706-3.572-1.353-6.003-1.943c-2.435-0.586-5.262-0.882-8.479-0.882
	c-2.905,0-5.259,0.492-7.064,1.473c-1.807,0.98-2.71,2.491-2.71,4.533c0,1.019,0.178,1.922,0.531,2.705
	c0.352,0.788,0.961,1.511,1.825,2.179c0.863,0.669,2.002,1.337,3.414,2.005c1.413,0.668,3.138,1.352,5.18,2.059
	c3.376,1.254,6.242,2.491,8.597,3.706c2.355,1.222,4.295,2.59,5.828,4.123c1.53,1.527,2.647,3.28,3.354,5.24
	c0.706,1.96,1.06,4.315,1.06,7.062c0,5.887-2.177,10.343-6.535,13.365c-4.356,3.017-10.578,4.534-18.659,4.534
	c-5.418,0-9.773-0.455-13.069-1.358c-3.297-0.897-5.615-1.626-6.948-2.174l2.472-11.892c2.122,0.864,4.651,1.686,7.595,2.469
	C921.352,463.604,924.706,463.993,928.476,463.993z"/>
<text transform="matrix(1 0 0 1 -90.9335 346.8271)"><tspan x="0" y="0" fill="#003B5C" font-family="'Ubuntu-Medium'" font-size="25px">Pivotal Property</tspan><tspan x="-1.654" y="42.4" fill="#003B5C" font-family="'Ubuntu-Medium'" font-size="42px" letter-spacing="1">Solutions</tspan></text>
<g>
	<path fill="#003B5C" d="M7.623,749.3c2.517,0,4.446,0.458,5.788,1.375c1.341,0.917,2.013,2.351,2.013,4.3
		c0,1.018-0.18,1.888-0.538,2.613c-0.358,0.725-0.879,1.316-1.562,1.774c-0.684,0.458-1.517,0.796-2.5,1.013
		s-2.108,0.324-3.375,0.324H5.873v6.101H2.724v-17.075c0.733-0.166,1.546-0.279,2.438-0.338C6.053,749.329,6.873,749.3,7.623,749.3z
		 M7.849,752.025c-0.8,0-1.459,0.024-1.976,0.074v5.9h1.525c1.517,0,2.684-0.213,3.5-0.638c0.816-0.425,1.225-1.229,1.225-2.413
		c0-0.566-0.108-1.041-0.324-1.424c-0.217-0.384-0.518-0.684-0.9-0.9c-0.384-0.217-0.838-0.371-1.362-0.463
		C9.011,752.07,8.448,752.025,7.849,752.025z"/>
	<path fill="#003B5C" d="M21.522,749.9c0,0.566-0.184,1.016-0.55,1.35c-0.367,0.334-0.8,0.5-1.3,0.5c-0.517,0-0.959-0.166-1.325-0.5
		c-0.367-0.334-0.55-0.783-0.55-1.35c0-0.584,0.183-1.042,0.55-1.375c0.366-0.334,0.809-0.5,1.325-0.5c0.5,0,0.933,0.166,1.3,0.5
		C21.339,748.858,21.522,749.316,21.522,749.9z M21.197,766.8h-3.024v-13.075h3.024V766.8z"/>
	<path fill="#003B5C" d="M28.417,766.8c-0.837-1.716-1.694-3.688-2.573-5.913c-0.879-2.225-1.678-4.611-2.396-7.162h3.226
		c0.185,0.734,0.397,1.521,0.64,2.363c0.243,0.842,0.502,1.684,0.778,2.524c0.276,0.842,0.561,1.659,0.854,2.45
		c0.293,0.791,0.566,1.504,0.816,2.137c0.251-0.633,0.519-1.346,0.803-2.137c0.284-0.791,0.565-1.608,0.841-2.45
		c0.276-0.841,0.54-1.683,0.791-2.524c0.251-0.842,0.469-1.629,0.652-2.363h3.126c-0.72,2.551-1.518,4.938-2.397,7.162
		c-0.879,2.226-1.736,4.197-2.572,5.913H28.417z"/>
	<path fill="#003B5C" d="M49.723,760.25c0,1.033-0.15,1.975-0.45,2.824c-0.3,0.851-0.725,1.576-1.274,2.176
		c-0.551,0.6-1.213,1.066-1.988,1.4c-0.774,0.332-1.629,0.5-2.562,0.5s-1.783-0.168-2.55-0.5c-0.767-0.334-1.425-0.801-1.975-1.4
		c-0.55-0.6-0.979-1.325-1.288-2.176c-0.309-0.85-0.462-1.791-0.462-2.824s0.153-1.971,0.462-2.812s0.742-1.562,1.301-2.162
		c0.558-0.601,1.221-1.062,1.987-1.389c0.767-0.324,1.608-0.486,2.524-0.486c0.917,0,1.763,0.162,2.538,0.486
		c0.774,0.326,1.438,0.788,1.987,1.389c0.55,0.6,0.979,1.32,1.287,2.162S49.723,759.217,49.723,760.25z M46.623,760.25
		c0-1.301-0.279-2.329-0.838-3.088c-0.559-0.758-1.338-1.137-2.338-1.137s-1.779,0.379-2.337,1.137
		c-0.559,0.759-0.838,1.787-0.838,3.088c0,1.316,0.279,2.358,0.838,3.125c0.558,0.767,1.337,1.15,2.337,1.15s1.779-0.384,2.338-1.15
		C46.344,762.608,46.623,761.566,46.623,760.25z"/>
	<path fill="#003B5C" d="M52.697,750.275l3.024-0.5v3.949h4.65v2.525h-4.65v5.324c0,1.051,0.167,1.801,0.5,2.25
		c0.333,0.451,0.9,0.676,1.7,0.676c0.55,0,1.037-0.059,1.463-0.176c0.425-0.115,0.762-0.225,1.012-0.324l0.5,2.4
		c-0.35,0.149-0.809,0.304-1.375,0.462s-1.233,0.237-2,0.237c-0.934,0-1.712-0.125-2.337-0.375s-1.121-0.612-1.487-1.088
		c-0.367-0.475-0.625-1.049-0.775-1.725c-0.15-0.675-0.225-1.445-0.225-2.312V750.275z"/>
	<path fill="#003B5C" d="M67.647,753.4c1,0,1.841,0.125,2.524,0.375s1.229,0.6,1.638,1.049c0.408,0.451,0.7,0.996,0.875,1.639
		c0.175,0.641,0.263,1.346,0.263,2.111v7.926c-0.467,0.1-1.171,0.221-2.112,0.362c-0.942,0.142-2.005,0.212-3.188,0.212
		c-0.784,0-1.5-0.074-2.15-0.225s-1.204-0.391-1.662-0.725c-0.459-0.334-0.817-0.767-1.075-1.301
		c-0.259-0.533-0.388-1.191-0.388-1.975c0-0.75,0.146-1.383,0.438-1.9c0.291-0.516,0.688-0.938,1.188-1.262
		c0.5-0.325,1.079-0.559,1.737-0.7c0.658-0.142,1.346-0.212,2.062-0.212c0.333,0,0.684,0.021,1.05,0.062
		c0.367,0.041,0.759,0.111,1.176,0.212v-0.5c0-0.351-0.042-0.683-0.125-1c-0.084-0.316-0.229-0.596-0.438-0.837
		c-0.209-0.242-0.484-0.43-0.825-0.562c-0.342-0.134-0.771-0.201-1.288-0.201c-0.699,0-1.342,0.051-1.925,0.15
		c-0.583,0.1-1.059,0.217-1.425,0.35L63.622,754c0.383-0.133,0.941-0.267,1.675-0.4C66.03,753.467,66.813,753.4,67.647,753.4z
		 M67.897,764.675c0.933,0,1.641-0.05,2.125-0.149v-3.351c-0.167-0.05-0.409-0.101-0.726-0.149c-0.316-0.051-0.667-0.076-1.05-0.076
		c-0.334,0-0.671,0.025-1.013,0.076c-0.342,0.049-0.649,0.141-0.925,0.274s-0.496,0.321-0.662,0.562
		c-0.167,0.241-0.25,0.546-0.25,0.913c0,0.717,0.225,1.212,0.675,1.486C66.522,764.537,67.13,764.675,67.897,764.675z"/>
	<path fill="#003B5C" d="M81.197,767.05c-0.899-0.017-1.646-0.116-2.237-0.3c-0.592-0.184-1.062-0.445-1.412-0.787
		c-0.351-0.342-0.597-0.768-0.737-1.275c-0.143-0.508-0.213-1.088-0.213-1.738V747.9l3.025-0.5v14.975
		c0,0.367,0.028,0.675,0.087,0.925c0.059,0.25,0.163,0.462,0.312,0.638c0.15,0.175,0.354,0.309,0.612,0.4
		c0.259,0.092,0.588,0.162,0.988,0.212L81.197,767.05z"/>
	<path fill="#003B5C" d="M94.946,749.3c2.517,0,4.446,0.458,5.788,1.375c1.341,0.917,2.013,2.351,2.013,4.3
		c0,1.018-0.18,1.888-0.538,2.613c-0.358,0.725-0.879,1.316-1.562,1.774s-1.517,0.796-2.5,1.013s-2.108,0.324-3.375,0.324h-1.575
		v6.101h-3.149v-17.075c0.733-0.166,1.546-0.279,2.438-0.338C93.376,749.329,94.196,749.3,94.946,749.3z M95.172,752.025
		c-0.8,0-1.459,0.024-1.976,0.074v5.9h1.525c1.517,0,2.684-0.213,3.5-0.638c0.816-0.425,1.225-1.229,1.225-2.413
		c0-0.566-0.108-1.041-0.324-1.424c-0.217-0.384-0.518-0.684-0.9-0.9c-0.384-0.217-0.838-0.371-1.362-0.463
		C96.334,752.07,95.771,752.025,95.172,752.025z"/>
	<path fill="#003B5C" d="M112.922,756.449c-0.25-0.082-0.596-0.17-1.037-0.262c-0.442-0.092-0.955-0.138-1.538-0.138
		c-0.333,0-0.688,0.034-1.062,0.101s-0.638,0.125-0.787,0.174V766.8h-3.025v-12.45c0.583-0.217,1.312-0.42,2.188-0.612
		c0.875-0.191,1.846-0.288,2.913-0.288c0.199,0,0.433,0.014,0.699,0.038s0.533,0.059,0.801,0.101
		c0.266,0.041,0.524,0.092,0.774,0.149c0.25,0.059,0.45,0.112,0.601,0.163L112.922,756.449z"/>
	<path fill="#003B5C" d="M127.371,760.25c0,1.033-0.15,1.975-0.45,2.824c-0.3,0.851-0.725,1.576-1.274,2.176
		c-0.551,0.6-1.213,1.066-1.988,1.4c-0.774,0.332-1.629,0.5-2.562,0.5c-0.934,0-1.783-0.168-2.55-0.5
		c-0.767-0.334-1.425-0.801-1.975-1.4c-0.55-0.6-0.979-1.325-1.288-2.176c-0.309-0.85-0.462-1.791-0.462-2.824
		s0.153-1.971,0.462-2.812c0.309-0.842,0.742-1.562,1.301-2.162c0.558-0.601,1.221-1.062,1.987-1.389
		c0.767-0.324,1.608-0.486,2.524-0.486c0.917,0,1.763,0.162,2.538,0.486c0.774,0.326,1.438,0.788,1.987,1.389
		c0.55,0.6,0.979,1.32,1.287,2.162C127.217,758.279,127.371,759.217,127.371,760.25z M124.271,760.25
		c0-1.301-0.279-2.329-0.838-3.088c-0.559-0.758-1.338-1.137-2.338-1.137s-1.779,0.379-2.337,1.137
		c-0.559,0.759-0.838,1.787-0.838,3.088c0,1.316,0.279,2.358,0.838,3.125c0.558,0.767,1.337,1.15,2.337,1.15s1.779-0.384,2.338-1.15
		S124.271,761.566,124.271,760.25z"/>
	<path fill="#003B5C" d="M142.271,760.275c0,1-0.13,1.916-0.388,2.75c-0.259,0.833-0.629,1.549-1.112,2.149
		s-1.088,1.067-1.812,1.399c-0.726,0.334-1.546,0.5-2.463,0.5c-0.616,0-1.184-0.074-1.7-0.225s-0.941-0.316-1.274-0.5v5.075h-3.025
		V754.15c0.616-0.167,1.375-0.326,2.275-0.476c0.899-0.149,1.85-0.226,2.85-0.226c1.033,0,1.958,0.159,2.775,0.476
		c0.816,0.317,1.513,0.771,2.087,1.362c0.575,0.592,1.017,1.309,1.325,2.15C142.117,758.279,142.271,759.225,142.271,760.275z
		 M139.171,760.324c0-1.35-0.304-2.399-0.912-3.149s-1.588-1.125-2.938-1.125c-0.283,0-0.579,0.013-0.888,0.038
		c-0.309,0.024-0.612,0.078-0.912,0.162v7.475c0.267,0.184,0.62,0.354,1.062,0.513c0.441,0.159,0.912,0.237,1.412,0.237
		c1.101,0,1.904-0.375,2.413-1.125C138.917,762.6,139.171,761.592,139.171,760.324z"/>
	<path fill="#003B5C" d="M144.671,760.324c0-1.149,0.171-2.158,0.513-3.024c0.341-0.866,0.795-1.587,1.362-2.163
		c0.566-0.574,1.216-1.008,1.95-1.299c0.732-0.292,1.482-0.438,2.25-0.438c1.8,0,3.203,0.559,4.212,1.674
		c1.009,1.117,1.513,2.784,1.513,5c0,0.168-0.004,0.355-0.013,0.562c-0.009,0.209-0.02,0.396-0.037,0.562h-8.625
		c0.083,1.051,0.454,1.863,1.112,2.438c0.658,0.576,1.612,0.863,2.862,0.863c0.733,0,1.404-0.066,2.013-0.2s1.088-0.274,1.438-0.425
		l0.4,2.475c-0.167,0.084-0.396,0.172-0.688,0.263c-0.292,0.092-0.625,0.175-1,0.25s-0.779,0.138-1.213,0.188
		c-0.434,0.05-0.875,0.075-1.325,0.075c-1.149,0-2.149-0.172-3-0.513c-0.85-0.341-1.55-0.816-2.1-1.425s-0.959-1.325-1.226-2.15
		C144.804,762.213,144.671,761.309,144.671,760.324z M153.445,758.975c0-0.416-0.059-0.812-0.175-1.188
		c-0.116-0.375-0.287-0.699-0.513-0.975c-0.225-0.275-0.5-0.492-0.824-0.65c-0.325-0.158-0.713-0.237-1.163-0.237
		c-0.467,0-0.875,0.087-1.225,0.263c-0.351,0.175-0.646,0.404-0.888,0.688c-0.242,0.283-0.43,0.608-0.562,0.975
		c-0.134,0.367-0.225,0.742-0.275,1.125H153.445z"/>
	<path fill="#003B5C" d="M167.121,756.449c-0.25-0.082-0.596-0.17-1.037-0.262c-0.442-0.092-0.955-0.138-1.538-0.138
		c-0.333,0-0.688,0.034-1.062,0.101s-0.638,0.125-0.787,0.174V766.8h-3.025v-12.45c0.583-0.217,1.312-0.42,2.188-0.612
		c0.875-0.191,1.846-0.288,2.913-0.288c0.199,0,0.433,0.014,0.699,0.038s0.533,0.059,0.801,0.101
		c0.266,0.041,0.524,0.092,0.774,0.149c0.25,0.059,0.45,0.112,0.601,0.163L167.121,756.449z"/>
	<path fill="#003B5C" d="M169.597,750.275l3.024-0.5v3.949h4.65v2.525h-4.65v5.324c0,1.051,0.167,1.801,0.5,2.25
		c0.333,0.451,0.9,0.676,1.7,0.676c0.55,0,1.037-0.059,1.463-0.176c0.425-0.115,0.762-0.225,1.012-0.324l0.5,2.4
		c-0.35,0.149-0.809,0.304-1.375,0.462s-1.233,0.237-2,0.237c-0.934,0-1.712-0.125-2.337-0.375s-1.121-0.612-1.487-1.088
		c-0.367-0.475-0.625-1.049-0.775-1.725c-0.15-0.675-0.225-1.445-0.225-2.312V750.275z"/>
	<path fill="#003B5C" d="M190.871,753.725c-1.348,4.967-2.911,9.467-4.691,13.5c-0.333,0.75-0.676,1.392-1.025,1.926
		c-0.351,0.533-0.743,0.975-1.177,1.324c-0.434,0.35-0.918,0.603-1.451,0.763c-0.534,0.158-1.151,0.237-1.853,0.237
		c-0.467,0-0.93-0.05-1.389-0.15c-0.459-0.1-0.805-0.208-1.039-0.324l0.551-2.426c0.603,0.234,1.197,0.351,1.783,0.351
		c0.786,0,1.401-0.188,1.846-0.562c0.443-0.375,0.832-0.954,1.168-1.737c-0.955-1.834-1.871-3.834-2.75-6
		c-0.879-2.166-1.661-4.467-2.348-6.9h3.226c0.167,0.7,0.372,1.459,0.614,2.275c0.243,0.816,0.507,1.646,0.791,2.487
		c0.284,0.842,0.585,1.679,0.903,2.513c0.317,0.834,0.636,1.608,0.954,2.324c0.53-1.482,1.028-3.062,1.493-4.736
		c0.464-1.676,0.888-3.297,1.269-4.863H190.871z"/>
	<path fill="#003B5C" d="M9.387,805.252c1.903,0,3.29-0.322,4.158-0.967c0.867-0.643,1.302-1.553,1.302-2.73
		c0-0.7-0.146-1.302-0.441-1.806c-0.294-0.504-0.714-0.959-1.26-1.365c-0.546-0.406-1.211-0.783-1.995-1.135
		c-0.784-0.35-1.68-0.692-2.688-1.028c-1.008-0.364-1.982-0.763-2.919-1.196c-0.938-0.435-1.765-0.973-2.479-1.617
		c-0.714-0.645-1.288-1.414-1.722-2.31c-0.435-0.896-0.651-1.975-0.651-3.234c0-2.631,0.91-4.696,2.73-6.194
		c1.819-1.497,4.298-2.247,7.433-2.247c1.82,0,3.438,0.203,4.852,0.609c1.413,0.406,2.526,0.847,3.339,1.322l-1.638,4.284
		c-0.953-0.532-1.995-0.938-3.13-1.218c-1.134-0.279-2.303-0.42-3.507-0.42c-1.428,0-2.541,0.294-3.339,0.882
		c-0.798,0.588-1.197,1.414-1.197,2.478c0,0.645,0.133,1.197,0.399,1.659c0.266,0.462,0.644,0.876,1.134,1.239
		c0.49,0.364,1.064,0.7,1.723,1.008c0.657,0.309,1.378,0.603,2.162,0.883c1.372,0.504,2.598,1.015,3.676,1.532
		c1.077,0.519,1.987,1.134,2.73,1.849c0.742,0.713,1.309,1.553,1.701,2.519c0.392,0.966,0.588,2.135,0.588,3.507
		c0,2.632-0.931,4.669-2.793,6.11c-1.862,1.443-4.585,2.164-8.169,2.164c-1.204,0-2.304-0.078-3.297-0.232
		c-0.994-0.154-1.876-0.343-2.646-0.567c-0.77-0.223-1.435-0.454-1.995-0.692c-0.559-0.237-1.008-0.455-1.344-0.651l1.555-4.326
		c0.756,0.42,1.777,0.84,3.065,1.26S7.566,805.252,9.387,805.252z"/>
	<path fill="#003B5C" d="M46.052,798.195c0,1.736-0.252,3.318-0.756,4.746c-0.504,1.428-1.218,2.646-2.142,3.654
		c-0.924,1.008-2.037,1.792-3.339,2.352c-1.303,0.561-2.737,0.84-4.306,0.84c-1.568,0-2.996-0.279-4.283-0.84
		c-1.289-0.56-2.395-1.344-3.318-2.352c-0.924-1.008-1.646-2.227-2.163-3.654c-0.518-1.428-0.777-3.01-0.777-4.746
		c0-1.735,0.259-3.311,0.777-4.725c0.518-1.414,1.245-2.625,2.184-3.633c0.939-1.008,2.051-1.785,3.34-2.331
		c1.287-0.546,2.701-0.819,4.241-0.819c1.54,0,2.961,0.273,4.264,0.819c1.302,0.546,2.415,1.323,3.339,2.331
		c0.924,1.008,1.645,2.219,2.163,3.633C45.793,794.885,46.052,796.46,46.052,798.195z M40.844,798.195
		c0-2.184-0.469-3.912-1.406-5.187c-0.938-1.274-2.247-1.911-3.928-1.911c-1.68,0-2.989,0.637-3.927,1.911
		c-0.938,1.274-1.407,3.003-1.407,5.187c0,2.213,0.469,3.963,1.407,5.25c0.938,1.289,2.247,1.933,3.927,1.933
		c1.681,0,2.989-0.643,3.928-1.933C40.375,802.158,40.844,800.408,40.844,798.195z"/>
	<path fill="#003B5C" d="M60.374,809.619c-1.512-0.027-2.766-0.195-3.759-0.504c-0.994-0.307-1.785-0.748-2.373-1.322
		c-0.588-0.574-1.002-1.287-1.239-2.143c-0.238-0.854-0.356-1.826-0.356-2.918v-25.285l5.082-0.84v25.158
		c0,0.616,0.048,1.135,0.146,1.555c0.098,0.42,0.273,0.776,0.525,1.07c0.252,0.294,0.595,0.519,1.028,0.672
		c0.435,0.154,0.987,0.273,1.659,0.357L60.374,809.619z"/>
	<path fill="#003B5C" d="M84.65,808.527c-0.98,0.252-2.254,0.512-3.822,0.777c-1.568,0.266-3.29,0.398-5.166,0.398
		c-1.764,0-3.241-0.252-4.431-0.756c-1.19-0.504-2.142-1.203-2.856-2.1c-0.714-0.896-1.225-1.967-1.532-3.213
		c-0.309-1.246-0.462-2.611-0.462-4.096v-12.305h5.082v11.508c0,2.352,0.342,4.031,1.028,5.039c0.686,1.008,1.883,1.513,3.591,1.513
		c0.616,0,1.267-0.028,1.953-0.085c0.687-0.055,1.197-0.125,1.533-0.209v-17.766h5.082V808.527z"/>
	<path fill="#003B5C" d="M92.294,781.438l5.082-0.84v6.637h7.812v4.241h-7.812v8.946c0,1.764,0.279,3.023,0.84,3.779
		c0.56,0.756,1.512,1.135,2.855,1.135c0.924,0,1.743-0.098,2.457-0.295c0.714-0.195,1.281-0.377,1.701-0.545l0.84,4.031
		c-0.588,0.252-1.358,0.512-2.309,0.777c-0.952,0.266-2.072,0.398-3.36,0.398c-1.568,0-2.877-0.209-3.927-0.629
		c-1.05-0.42-1.884-1.029-2.499-1.828c-0.616-0.797-1.05-1.764-1.302-2.898c-0.252-1.134-0.378-2.429-0.378-3.885V781.438z"/>
	<path fill="#003B5C" d="M117.2,780.808c0,0.952-0.309,1.708-0.924,2.269c-0.616,0.561-1.345,0.84-2.185,0.84
		c-0.868,0-1.61-0.279-2.226-0.84c-0.616-0.561-0.924-1.316-0.924-2.269c0-0.98,0.308-1.749,0.924-2.31
		c0.615-0.561,1.357-0.84,2.226-0.84c0.84,0,1.568,0.279,2.185,0.84C116.892,779.059,117.2,779.828,117.2,780.808z M116.654,809.199
		h-5.082v-21.965h5.082V809.199z"/>
	<path fill="#003B5C" d="M144.415,798.195c0,1.736-0.252,3.318-0.756,4.746c-0.504,1.428-1.218,2.646-2.142,3.654
		c-0.924,1.008-2.037,1.792-3.339,2.352c-1.303,0.561-2.737,0.84-4.306,0.84c-1.568,0-2.996-0.279-4.283-0.84
		c-1.289-0.56-2.395-1.344-3.318-2.352s-1.646-2.227-2.163-3.654c-0.519-1.428-0.777-3.01-0.777-4.746
		c0-1.735,0.259-3.311,0.777-4.725c0.518-1.414,1.245-2.625,2.184-3.633s2.051-1.785,3.34-2.331
		c1.287-0.546,2.701-0.819,4.241-0.819c1.54,0,2.961,0.273,4.264,0.819c1.302,0.546,2.415,1.323,3.339,2.331
		s1.645,2.219,2.163,3.633C144.156,794.885,144.415,796.46,144.415,798.195z M139.207,798.195c0-2.184-0.469-3.912-1.406-5.187
		c-0.938-1.274-2.247-1.911-3.928-1.911c-1.68,0-2.989,0.637-3.927,1.911c-0.939,1.274-1.407,3.003-1.407,5.187
		c0,2.213,0.469,3.963,1.407,5.25c0.938,1.289,2.247,1.933,3.927,1.933c1.681,0,2.989-0.643,3.928-1.933
		C138.738,802.158,139.207,800.408,139.207,798.195z"/>
	<path fill="#003B5C" d="M151.093,787.947c0.979-0.279,2.253-0.545,3.821-0.797c1.568-0.252,3.304-0.379,5.208-0.379
		c1.792,0,3.29,0.246,4.494,0.735c1.204,0.49,2.163,1.176,2.877,2.058c0.714,0.883,1.218,1.947,1.513,3.192
		c0.294,1.246,0.44,2.611,0.44,4.095v12.348h-5.082V797.65c0-1.177-0.077-2.178-0.23-3.004c-0.154-0.825-0.406-1.498-0.757-2.016
		c-0.35-0.518-0.826-0.897-1.428-1.135c-0.603-0.236-1.337-0.356-2.205-0.356c-0.645,0-1.316,0.042-2.016,0.126
		c-0.7,0.084-1.218,0.154-1.554,0.21v17.724h-5.082V787.947z"/>
	<path fill="#003B5C" d="M182.593,805.546c1.344,0,2.323-0.161,2.939-0.483c0.616-0.321,0.924-0.875,0.924-1.658
		c0-0.729-0.329-1.33-0.986-1.807c-0.658-0.476-1.743-0.994-3.255-1.554c-0.925-0.337-1.771-0.693-2.541-1.071
		c-0.771-0.378-1.436-0.818-1.995-1.322c-0.561-0.505-1.002-1.113-1.323-1.828c-0.322-0.713-0.483-1.588-0.483-2.625
		c0-2.016,0.742-3.604,2.227-4.767c1.483-1.161,3.5-1.743,6.048-1.743c1.287,0,2.52,0.119,3.696,0.357
		c1.176,0.238,2.058,0.469,2.645,0.693l-0.924,4.115c-0.561-0.252-1.275-0.482-2.142-0.693c-0.868-0.209-1.877-0.315-3.025-0.315
		c-1.036,0-1.876,0.176-2.52,0.525c-0.645,0.35-0.967,0.889-0.967,1.617c0,0.363,0.064,0.685,0.189,0.965
		c0.126,0.281,0.343,0.54,0.651,0.777c0.308,0.238,0.714,0.477,1.218,0.715c0.504,0.238,1.119,0.482,1.848,0.734
		c1.204,0.448,2.227,0.889,3.066,1.323c0.84,0.435,1.532,0.924,2.079,1.47c0.546,0.546,0.944,1.17,1.196,1.869
		c0.252,0.7,0.378,1.54,0.378,2.519c0,2.101-0.776,3.69-2.331,4.768c-1.554,1.077-3.773,1.617-6.656,1.617
		c-1.933,0-3.486-0.162-4.662-0.483c-1.176-0.321-2.003-0.581-2.479-0.776l0.882-4.242c0.757,0.309,1.659,0.602,2.709,0.881
		C180.052,805.406,181.248,805.546,182.593,805.546z"/>
</g>
</svg>
