<?xml version="1.0" encoding="utf-8"?>
<!-- Generator: Adobe Illustrator 24.1.3, SVG Export Plug-In . SVG Version: 6.00 Build 0)  -->
<svg version="1.1" id="Layer_1" xmlns="http://www.w3.org/2000/svg" xmlns:xlink="http://www.w3.org/1999/xlink" x="0px" y="0px"
	 viewBox="0 0 155 67" style="enable-background:new 0 0 155 67;" xml:space="preserve">
<style type="text/css">
	.st0{fill:url(#SVGID_1_);}
	.st1{fill:#5A5A5A;}
</style>
<g>
	<linearGradient id="SVGID_1_" gradientUnits="userSpaceOnUse" x1="6.7216" y1="14.2763" x2="58.9727" y2="50.8629">
		<stop  offset="0.0474" style="stop-color:#00B4FF"/>
		<stop  offset="0.0624" style="stop-color:#02AFFB"/>
		<stop  offset="0.2172" style="stop-color:#1282D7"/>
		<stop  offset="0.3552" style="stop-color:#1E61BE"/>
		<stop  offset="0.4701" style="stop-color:#254DAE"/>
		<stop  offset="0.5477" style="stop-color:#2846A8"/>
		<stop  offset="0.6071" style="stop-color:#2D45A7"/>
		<stop  offset="0.6773" style="stop-color:#3B40A5"/>
		<stop  offset="0.7528" style="stop-color:#533AA1"/>
		<stop  offset="0.8321" style="stop-color:#74309B"/>
		<stop  offset="0.9136" style="stop-color:#9E2495"/>
		<stop  offset="0.9505" style="stop-color:#B41E91"/>
	</linearGradient>
	<path class="st0" d="M38.49,48.82c-0.28,0-0.56-0.01-0.84-0.02c2.69-0.79,5.15-2.24,7.18-4.27c3.2-3.2,4.96-7.45,4.96-11.97
		s-1.76-8.77-4.96-11.97c-3.2-3.2-7.45-4.96-11.97-4.96s-8.77,1.76-11.97,4.96c-2.81,2.81-4.51,6.43-4.88,10.34
		c-0.38-1.67-0.58-3.4-0.58-5.16c0-6.16,2.4-11.95,6.75-16.31C26.54,5.1,32.33,2.7,38.49,2.7c5.38,0,10.48,1.83,14.58,5.2
		c0.06,0.05,0.11,0.09,0.17,0.14c0.53,0.45,1.05,0.92,1.55,1.42v0c4.36,4.36,6.75,10.15,6.75,16.31c0,6.16-2.4,11.95-6.75,16.31
		C50.44,46.42,44.65,48.82,38.49,48.82z M64.13,26.31c-0.14,6.37-2.63,12.7-7.5,17.56c-10,10-26.22,10-36.23,0
		c-10-10-10-26.22,0-36.23c3.67-3.67,8.18-6,12.92-6.97c-8.32-0.12-16.67,2.99-23.02,9.33c-12.45,12.45-12.45,32.64,0,45.1
		c12.45,12.45,32.64,12.45,45.1,0C63.23,47.28,66.13,36.4,64.13,26.31z M42.95,22.46c-2.7-2.7-6.28-4.18-10.1-4.18
		c-3.81,0-7.4,1.49-10.1,4.18c-2.7,2.7-4.18,6.28-4.18,10.1c0,3.65,1.36,7.09,3.84,9.74c0.87,0.85,1.8,1.62,2.77,2.31
		c2.27,1.45,4.91,2.23,7.67,2.23c3.81,0,7.4-1.49,10.1-4.18c2.7-2.7,4.18-6.28,4.18-10.1S45.65,25.16,42.95,22.46z"/>
</g>
<g>
	<path class="st1" d="M75.4,30.33V15.69h8.53v2.74h-5.4v3.67h4.86v2.71h-4.86v5.52H75.4z"/>
	<path class="st1" d="M90.65,19.09c3.28,0,5.77,2.32,5.77,5.75c0,3.43-2.49,5.75-5.77,5.75s-5.75-2.32-5.75-5.75
		C84.91,21.41,87.37,19.09,90.65,19.09z M90.65,21.65c-1.6,0-2.76,1.21-2.76,3.18s1.16,3.18,2.76,3.18c1.6,0,2.76-1.21,2.76-3.18
		S92.26,21.65,90.65,21.65z"/>
	<path class="st1" d="M97.62,26.95c1.04,0.76,2.42,1.23,3.5,1.23c0.91,0,1.53-0.27,1.53-0.96c0-0.67-0.47-0.94-1.68-1.18
		c-2.49-0.44-3.53-1.43-3.53-3.43c0-2.42,1.83-3.53,4.19-3.53c1.31,0,2.27,0.27,3.23,0.81v2.64c-1.04-0.69-2-1.06-3.13-1.06
		c-0.99,0-1.41,0.42-1.41,0.94c0,0.57,0.39,0.86,1.43,1.11c2.84,0.52,3.8,1.6,3.8,3.58c0,2.39-1.8,3.48-4.37,3.48
		c-1.33,0-2.69-0.32-3.58-0.89V26.95z"/>
	<path class="st1" d="M106.19,19.33h1.65v-2.71h2.96v2.71h3.13v2.47h-3.13v4.41c0,1.26,0.59,1.65,1.48,1.65
		c0.74,0,1.38-0.22,2.02-0.62v2.71c-0.79,0.42-1.73,0.62-2.84,0.62c-1.9,0-3.62-0.91-3.62-3.58v-5.2h-1.65V19.33z"/>
	<path class="st1" d="M118.08,25.65v0.05c0.22,1.55,1.75,2.34,3.23,2.34s2.59-0.35,3.67-0.99v2.51c-1.01,0.72-2.49,1.01-3.97,1.01
		c-3.58,0-5.82-2.19-5.82-5.62c0-3.62,2.29-5.87,5.38-5.87c3.43,0,4.76,2.27,4.76,5.18v1.38H118.08z M122.57,23.87
		c-0.02-1.36-0.67-2.34-2.07-2.34c-1.28,0-2.12,0.91-2.39,2.34H122.57z"/>
	<path class="st1" d="M130.08,30.33h-2.96V20.17c1.21-0.64,2.79-1.01,4.39-1.01c0.86,0,1.48,0.07,2.29,0.3v2.86
		c-0.71-0.3-1.5-0.37-2.22-0.37c-0.54,0-1.04,0.1-1.5,0.25V30.33z"/>
	<path class="st1" d="M82.28,49.08l-3.13-10.23l-1.53,10.23h-3.06l2.15-14.65h3.8l3.28,10.73l3.18-10.73h3.8l2.17,14.65h-3.11
		L88.3,38.84l-3.16,10.23H82.28z"/>
	<path class="st1" d="M99.8,37.83c3.28,0,5.77,2.32,5.77,5.75c0,3.43-2.49,5.75-5.77,5.75s-5.75-2.32-5.75-5.75
		C94.06,40.15,96.52,37.83,99.8,37.83z M99.8,40.4c-1.6,0-2.76,1.21-2.76,3.18s1.16,3.18,2.76,3.18c1.6,0,2.76-1.21,2.76-3.18
		S101.41,40.4,99.8,40.4z"/>
	<path class="st1" d="M112.55,37.83c3.28,0,5.77,2.32,5.77,5.75c0,3.43-2.49,5.75-5.77,5.75s-5.75-2.32-5.75-5.75
		C106.8,40.15,109.27,37.83,112.55,37.83z M112.55,40.4c-1.6,0-2.76,1.21-2.76,3.18s1.16,3.18,2.76,3.18s2.76-1.21,2.76-3.18
		S114.15,40.4,112.55,40.4z"/>
	<path class="st1" d="M122.95,49.08h-2.96V38.92c1.21-0.64,2.79-1.01,4.39-1.01c0.86,0,1.48,0.07,2.29,0.3v2.86
		c-0.72-0.3-1.5-0.37-2.22-0.37c-0.54,0-1.04,0.1-1.5,0.25V49.08z"/>
	<path class="st1" d="M130.43,44.39v0.05c0.22,1.55,1.75,2.34,3.23,2.34s2.59-0.35,3.67-0.99v2.51c-1.01,0.72-2.49,1.01-3.97,1.01
		c-3.58,0-5.82-2.19-5.82-5.62c0-3.62,2.29-5.87,5.37-5.87c3.43,0,4.76,2.27,4.76,5.18v1.38H130.43z M134.92,42.62
		c-0.03-1.36-0.67-2.34-2.07-2.34c-1.28,0-2.12,0.91-2.39,2.34H134.92z"/>
</g>
<g>
	<path class="st1" d="M137.31,20.6c-1.47,0-2.67-1.2-2.67-2.67c0-1.47,1.2-2.67,2.67-2.67c1.47,0,2.67,1.2,2.67,2.67
		C139.98,19.4,138.78,20.6,137.31,20.6z M137.31,15.71c-1.22,0-2.21,0.99-2.21,2.21c0,1.22,0.99,2.21,2.21,2.21
		c1.22,0,2.21-0.99,2.21-2.21C139.51,16.71,138.52,15.71,137.31,15.71z"/>
	<g>
		<path class="st1" d="M136.99,19.29h-0.7v-2.81c0.22-0.04,0.6-0.06,0.89-0.06c0.72,0,1.21,0.3,1.21,0.98c0,0.4-0.23,0.69-0.51,0.84
			l0.76,1.06h-0.83l-0.61-0.9h-0.2V19.29z M136.99,17.81h0.18c0.3,0,0.5-0.1,0.5-0.39c0-0.29-0.22-0.39-0.49-0.39
			c-0.06,0-0.16,0-0.19,0.01V17.81z"/>
	</g>
</g>
<g>
	<path class="st1" d="M74.96,62.14l-0.67,1.78h-0.7l2.5-6.46h0.86l2.53,6.46h-0.72l-0.67-1.78H74.96z M76.52,58.01l-1.35,3.57h2.71
		L76.52,58.01z"/>
	<path class="st1" d="M84.36,63.93h-0.67v-5.88h-2.13v-0.59h4.94v0.59h-2.13V63.93z"/>
	<path class="st1" d="M87.08,61.59v0.02c0,1.16,0.84,1.85,1.76,1.85c0.68,0,1.14-0.17,1.62-0.53v0.65
		c-0.42,0.32-1.03,0.46-1.62,0.46c-1.37,0-2.41-0.94-2.41-2.48c0-1.42,0.98-2.48,2.25-2.48c1.2,0,1.99,0.72,1.99,2.07v0.45H87.08z
		 M90.02,61.05c-0.04-0.99-0.58-1.39-1.37-1.39c-0.74,0-1.34,0.5-1.52,1.39H90.02z"/>
	<path class="st1" d="M92.43,63.93h-0.65v-4.31c0.5-0.32,1.11-0.51,1.76-0.51c0.26,0,0.52,0.03,0.79,0.1v0.64
		c-0.28-0.1-0.62-0.12-0.84-0.12c-0.47,0-0.82,0.1-1.07,0.24V63.93z"/>
	<path class="st1" d="M97.58,60.61c0-0.61-0.39-0.92-1-0.92c-0.54,0-0.96,0.15-1.39,0.38v-0.62c0.4-0.22,0.91-0.37,1.47-0.37
		c0.96,0,1.58,0.42,1.58,1.49v3.28c-0.44,0.12-0.95,0.17-1.35,0.17c-1.28,0-2.14-0.4-2.14-1.4c0-0.94,0.86-1.43,2.3-1.43h0.53V60.61
		z M97.58,61.72h-0.49c-0.98,0-1.7,0.26-1.7,0.89s0.65,0.86,1.52,0.86c0.2,0,0.43-0.02,0.66-0.07V61.72z"/>
	<path class="st1" d="M99.65,59.44c0.63-0.23,1.35-0.36,1.99-0.36c1.2,0,1.93,0.47,1.93,1.65v3.2h-0.65v-3.07
		c0-0.97-0.69-1.17-1.33-1.17c-0.5,0-0.95,0.09-1.29,0.17v4.07h-0.65V59.44z"/>
	<path class="st1" d="M105.3,61.59v0.02c0,1.16,0.84,1.85,1.76,1.85c0.67,0,1.14-0.17,1.62-0.53v0.65
		c-0.42,0.32-1.03,0.46-1.62,0.46c-1.37,0-2.42-0.94-2.42-2.48c0-1.42,0.98-2.48,2.25-2.48c1.2,0,1.99,0.72,1.99,2.07v0.45H105.3z
		 M108.24,61.05c-0.04-0.99-0.58-1.39-1.37-1.39c-0.74,0-1.34,0.5-1.52,1.39H108.24z"/>
	<path class="st1" d="M109.4,59.18h0.73v-1.15h0.65v1.15h1.34v0.56h-1.34v2.89c0,0.61,0.24,0.85,0.69,0.85c0.3,0,0.55-0.1,0.88-0.26
		v0.58c-0.28,0.14-0.61,0.24-1.02,0.24c-0.69,0-1.2-0.36-1.2-1.34v-2.96h-0.73V59.18z"/>
	<path class="st1" d="M120.08,58.63c-0.47-0.45-1.11-0.66-1.79-0.66c-1.46,0-2.64,1.07-2.64,2.73c0,1.66,1.19,2.73,2.64,2.73
		c0.69,0,1.36-0.21,1.83-0.64v0.77c-0.51,0.3-1.16,0.48-1.82,0.48c-1.96,0-3.34-1.36-3.34-3.34c0-1.99,1.48-3.34,3.34-3.34
		c0.65,0,1.26,0.17,1.79,0.49V58.63z"/>
	<path class="st1" d="M123.36,59.08c1.41,0,2.38,1.01,2.38,2.48s-0.97,2.48-2.38,2.48s-2.38-1.01-2.38-2.48
		S121.94,59.08,123.36,59.08z M123.36,59.64c-1,0-1.72,0.76-1.72,1.92s0.72,1.92,1.72,1.92c1,0,1.72-0.76,1.72-1.92
		S124.36,59.64,123.36,59.64z"/>
	<path class="st1" d="M132.91,60.75c0-0.88-0.6-1.09-1.11-1.09c-0.56,0-1.11,0.14-1.39,0.27c0.09,0.21,0.14,0.47,0.14,0.78v3.21
		h-0.65v-3.18c0-0.88-0.58-1.09-1.12-1.09c-0.53,0-0.96,0.11-1.25,0.22v4.05h-0.65v-4.44c0.62-0.25,1.27-0.41,1.9-0.41
		c0.55,0,0.98,0.12,1.27,0.37c0.56-0.22,1.17-0.37,1.75-0.37c1.14,0,1.76,0.47,1.76,1.65v3.2h-0.65V60.75z"/>
	<path class="st1" d="M135.01,59.38c0.44-0.16,1.04-0.3,1.65-0.3c1.63,0,2.62,0.85,2.62,2.48c0,1.54-1.02,2.48-2.58,2.48
		c-0.38,0-0.79-0.08-1.04-0.2v2.04h-0.65V59.38z M135.66,63.28c0.3,0.13,0.64,0.2,1.04,0.2c1.15,0,1.91-0.71,1.91-1.92
		c0-1.16-0.71-1.88-1.96-1.88c-0.37,0-0.75,0.04-1,0.13V63.28z"/>
	<path class="st1" d="M142.87,60.61c0-0.61-0.39-0.92-1-0.92c-0.54,0-0.96,0.15-1.39,0.38v-0.62c0.4-0.22,0.91-0.37,1.47-0.37
		c0.96,0,1.58,0.42,1.58,1.49v3.28c-0.44,0.12-0.95,0.17-1.35,0.17c-1.28,0-2.14-0.4-2.14-1.4c0-0.94,0.86-1.43,2.31-1.43h0.53
		V60.61z M142.87,61.72h-0.49c-0.98,0-1.7,0.26-1.7,0.89s0.65,0.86,1.52,0.86c0.2,0,0.44-0.02,0.66-0.07V61.72z"/>
	<path class="st1" d="M144.94,59.44c0.63-0.23,1.35-0.36,1.99-0.36c1.2,0,1.93,0.47,1.93,1.65v3.2h-0.65v-3.07
		c0-0.97-0.69-1.17-1.33-1.17c-0.5,0-0.95,0.09-1.29,0.17v4.07h-0.65V59.44z"/>
	<path class="st1" d="M151.84,63.5l1.57-4.32h0.67l-2.57,6.7h-0.64l0.64-1.64l-1.98-5.06h0.72L151.84,63.5z"/>
</g>
</svg>
