<svg id="Layer_1" data-name="Layer 1" xmlns="http://www.w3.org/2000/svg" xmlns:xlink="http://www.w3.org/1999/xlink" viewBox="0 0 298.61 95.49"><defs><style>.cls-1{fill:#55565b;}.cls-2{fill:url(#linear-gradient);}</style><linearGradient id="linear-gradient" x1="52.03" y1="63.69" x2="130.54" y2="118.67" gradientUnits="userSpaceOnUse"><stop offset="0.04" stop-color="#00b4ff"/><stop offset="0.47" stop-color="#8dc63f"/><stop offset="0.7" stop-color="#8dc63f"/><stop offset="0.75" stop-color="#84cb42"/><stop offset="0.84" stop-color="#6cd94a"/><stop offset="0.95" stop-color="#44f058"/><stop offset="0.97" stop-color="#3ef45a"/></linearGradient></defs><path class="cls-1" d="M184.33,61.53h10.32l-16.38,48.18H167.13L150.78,61.53h10.31l9.07,28.67q.75,2.53,1.56,5.92c.54,2.25.88,3.81,1,4.69A83.22,83.22,0,0,1,175.2,90.2Z" transform="translate(-43.85 -42.92)"/><path class="cls-1" d="M209.71,110.37q-8.9,0-13.91-4.91t-5-13.91q0-9.26,4.63-14.32t12.81-5.06q7.82,0,12.16,4.45t4.35,12.29v4.88H201a9.63,9.63,0,0,0,2.54,6.69,8.9,8.9,0,0,0,6.65,2.41,27.77,27.77,0,0,0,6.3-.69,31.29,31.29,0,0,0,6.19-2.21v7.78a23.45,23.45,0,0,1-5.63,2A35.47,35.47,0,0,1,209.71,110.37Zm-1.42-31.05a6.35,6.35,0,0,0-5,2,9.34,9.34,0,0,0-2.08,5.75h14.11a8.42,8.42,0,0,0-1.95-5.75A6.58,6.58,0,0,0,208.29,79.32Z" transform="translate(-43.85 -42.92)"/><path class="cls-1" d="M250.11,72.17a16,16,0,0,1,3.39.3l-.76,9.42a11.46,11.46,0,0,0-3-.33q-4.82,0-7.5,2.48A8.92,8.92,0,0,0,239.59,91v18.75H229.54V72.86h7.61l1.49,6.2h.49a13.79,13.79,0,0,1,4.63-5A11.39,11.39,0,0,1,250.11,72.17Z" transform="translate(-43.85 -42.92)"/><path class="cls-1" d="M291.24,109.71H281.18V88.19q0-4-1.41-6a5.17,5.17,0,0,0-4.52-2q-4.22,0-6.1,2.82t-1.88,9.34v17.34h-10V72.86h7.68l1.35,4.72h.56a10.65,10.65,0,0,1,4.63-4,15.84,15.84,0,0,1,6.71-1.37q6.44,0,9.76,3.48t3.33,10Z" transform="translate(-43.85 -42.92)"/><path class="cls-1" d="M315,110.37q-8.89,0-13.91-4.91t-5-13.91q0-9.26,4.63-14.32t12.81-5.06q7.81,0,12.16,4.45t4.35,12.29v4.88H306.29a9.63,9.63,0,0,0,2.54,6.69,8.9,8.9,0,0,0,6.65,2.41,27.77,27.77,0,0,0,6.3-.69A31.59,31.59,0,0,0,328,100v7.78a23.68,23.68,0,0,1-5.64,2A35.47,35.47,0,0,1,315,110.37ZM313.6,79.32a6.35,6.35,0,0,0-5,2,9.34,9.34,0,0,0-2.08,5.75h14.11a8.42,8.42,0,0,0-1.95-5.75A6.58,6.58,0,0,0,313.6,79.32Z" transform="translate(-43.85 -42.92)"/><path class="cls-1" d="M330.25,71.79a5.93,5.93,0,0,1,.82-3,5.85,5.85,0,0,1,2.23-2.24,5.94,5.94,0,0,1,3.05-.82,6.1,6.1,0,0,1,5.32,9.1A6.12,6.12,0,0,1,333.26,77a5.87,5.87,0,0,1-2.21-2.24A6,6,0,0,1,330.25,71.79Zm.86,0A5.24,5.24,0,0,0,339,76.33a5.22,5.22,0,0,0,1.91-1.91,5,5,0,0,0,.71-2.63,5.12,5.12,0,0,0-.7-2.62A5.25,5.25,0,0,0,339,67.25a5.23,5.23,0,0,0-5.26,0,5.22,5.22,0,0,0-1.91,1.91A5,5,0,0,0,331.11,71.79Zm7.72-1.48a2,2,0,0,1-.35,1.15,2,2,0,0,1-1,.74l1.94,3.21h-1.37l-1.68-2.87h-1.09v2.87h-1.2V68.18h2.11a3.06,3.06,0,0,1,2,.53A2,2,0,0,1,338.83,70.31Zm-3.52,1.23h.87a1.53,1.53,0,0,0,1.05-.34,1.07,1.07,0,0,0,.39-.85,1,1,0,0,0-.35-.88,1.87,1.87,0,0,0-1.1-.26h-.86Z" transform="translate(-43.85 -42.92)"/><path class="cls-2" d="M100.21,47.24a33.05,33.05,0,0,1,6.4,65.48,26.88,26.88,0,1,0-39.44-33.2A33.09,33.09,0,0,1,100.21,47.24Zm-8.42,63.08a20,20,0,1,0-20-20A20,20,0,0,0,91.79,110.32Zm8.42,9.87a39.9,39.9,0,0,1-14-77.27A47.9,47.9,0,1,0,139.54,87,39.9,39.9,0,0,1,100.21,120.19Z" transform="translate(-43.85 -42.92)"/></svg>