<?xml version="1.0" encoding="utf-8"?>
<!-- Generator: Adobe Illustrator 27.6.1, SVG Export Plug-In . SVG Version: 6.00 Build 0)  -->
<svg version="1.1" id="Layer_1" xmlns="http://www.w3.org/2000/svg" xmlns:xlink="http://www.w3.org/1999/xlink" x="0px" y="0px"
	 viewBox="0 0 488.1 212.7" style="enable-background:new 0 0 488.1 212.7;" xml:space="preserve">
<style type="text/css">
	.st0{enable-background:new    ;}
</style>
<g>
	<path d="M152.5,97.1L152.5,97.1l-4,15.1c0,0-0.6,2.4-0.6,5.4c0,0,0,1.6,0.6,3.6h-30.3c0,0,3.2-4.8,4.9-11.6l12.3-47.3
		c0,0,0.6-2.4,0.6-5.3c0,0,0-1.6-0.6-3.7h53.3c0,0,8.6,0,12.2,3c0,0,4.3,3.7,4.3,9.4c0,0,0,1.6-0.8,4.7l-3.1,12
		c0,0-2.2,8.3-6.7,11.8c0,0-2.9,2.1-7,2.7c0,0-2,0.3-7.5,0.3L152.5,97.1L152.5,97.1z M155.4,85.9L155.4,85.9h12.2c0,0,4.2,0,5.8-1.2
		c0,0,1.6-1.2,2.6-5.2l2.5-9.7c0,0,0.3-1.2,0.3-2c0,0,0-3.5-5.3-3.5H161L155.4,85.9z M231.7,97.1L231.7,97.1l-4,15.1
		c0,0-0.6,2.4-0.6,5.4c0,0,0,1.6,0.6,3.6h-30.3c0,0,3.1-4.8,4.9-11.6l12.3-47.3c0,0,0.6-2.4,0.6-5.3c0,0,0-1.6-0.6-3.7h53.3
		c0,0,8.6,0,12.2,3c0,0,4.3,3.7,4.3,9.4c0,0,0,1.6-0.8,4.7l-3,12c0,0-2.2,8.3-6.7,11.8c0,0-2.9,2.1-7,2.7c0,0-2,0.3-7.5,0.3
		L231.7,97.1L231.7,97.1z M234.5,85.9L234.5,85.9h12.2c0,0,4.2,0,5.8-1.2c0,0,1.6-1.2,2.6-5.2l2.5-9.7c0,0,0.3-1.2,0.3-2
		c0,0,0-3.5-5.3-3.5h-12.5L234.5,85.9z M318.2,81L318.2,81h42.4c0,0-3.1,4.8-5,11.6l-5,19.5c0,0-0.7,2.5-0.7,5.4c0,0,0,1.6,0.7,3.6
		h-21.5l0.1-6.3c0,0-1.4,3.7-3.4,5c0,0-2,1.3-6,1.3h-21.4c0,0-9.3,0-12.5-2.3c0,0-5.1-3.9-5.1-10.1c0,0,0-2.3,1.1-6.9l8.8-33.7
		c0,0,2.3-9.2,8.9-12.4c0,0,4-1.9,9.6-2.3c0,0,1.3-0.1,10.1-0.1h44.3l-1.2,12.9c0,0-3.9-1.7-11.6-1.7h-26c0,0-4,0-5.5,0.9
		c0,0-1.9,1-2.9,4.5l-8.9,34.2c0,0-0.4,1.7-0.4,2.5c0,0,0,3.4,4.7,3.4h8.6c0,0,3.2,0,4.5-1.7c0,0,0.7-0.9,1.7-4.9l3-11.1h-6.5
		c0,0-4.5,0-8.1,1.2L318.2,81z"/>
	<g class="st0">
		<path d="M220.8,139.1h-5.8l-2.9,16.5h-2.4l2.9-16.5h-5.8l0.4-2h13.9L220.8,139.1z"/>
		<path d="M227.1,155.8c-1.2,0-2.2-0.3-3.1-0.9s-1.6-1.3-2.1-2.4c-0.5-1.1-0.8-2.2-0.8-3.5c-0.1-1,0.1-2.3,0.3-3.8s0.8-2.9,1.4-4.1
			s1.5-2.2,2.5-2.9c1.3-1,2.8-1.5,4.5-1.4c1.8,0,3.2,0.7,4.3,1.9c1,1.2,1.6,2.9,1.7,4.9c0,0.9-0.1,2-0.3,3.4s-0.6,2.6-1.2,3.8
			s-1.3,2.2-2.1,3C230.9,155.2,229.2,155.9,227.1,155.8z M233.6,144.2c0.1-1.7-0.2-3-0.9-3.9c-0.6-0.9-1.6-1.4-2.8-1.4
			c-1.1,0-2.1,0.3-3,0.9s-1.6,1.6-2.2,2.9c-0.6,1.3-0.9,2.9-1.1,4.9l0,0.8c-0.1,1.7,0.2,3,0.9,3.9s1.6,1.4,2.8,1.5
			c1.6,0,2.9-0.5,4-1.7c1.1-1.2,1.8-2.9,2.1-5C233.5,145.9,233.6,145,233.6,144.2z"/>
		<path d="M253.7,137.1l-2.1,12.5c-0.3,1.9-1.1,3.5-2.5,4.6c-1.4,1.1-3,1.7-5,1.7c-1.2,0-2.3-0.3-3.2-0.8c-0.9-0.5-1.6-1.3-2-2.2
			c-0.4-0.9-0.6-2-0.4-3.2l2.1-12.5h2.3l-2.1,12.5c-0.1,1.3,0.1,2.3,0.7,3.1s1.5,1.1,2.7,1.2c1.3,0.1,2.4-0.3,3.3-1
			c0.9-0.8,1.4-1.8,1.7-3.2l2.1-12.6H253.7z"/>
		<path d="M262.3,148.1H258l-1.3,7.5h-2.4l3.2-18.5l5.6,0c1.9,0,3.4,0.5,4.4,1.5s1.4,2.3,1.3,4c-0.1,1.2-0.5,2.2-1.3,3.1
			s-1.7,1.5-3,2l2.9,7.8l0,0.2h-2.5L262.3,148.1z M258.3,146.1l3.5,0c1.2,0,2.2-0.3,3.1-1c0.8-0.6,1.3-1.5,1.5-2.6
			c0.1-1.1-0.1-1.9-0.6-2.5c-0.6-0.6-1.4-0.9-2.5-1l-3.7,0L258.3,146.1z"/>
		<path d="M280.3,150.8c0.2-1.4-0.5-2.3-2.1-3L276,147l-0.7-0.3c-2.5-1.1-3.6-2.7-3.5-4.7c0.1-1,0.4-1.9,1.1-2.7
			c0.6-0.8,1.4-1.4,2.5-1.8c1-0.4,2.1-0.6,3.3-0.6c1.1,0,2.1,0.3,3,0.7s1.5,1.1,2,2c0.5,0.8,0.7,1.8,0.6,2.9l-2.4,0
			c0.1-1.1-0.2-2-0.8-2.6c-0.6-0.6-1.4-0.9-2.5-1c-1.2,0-2.1,0.3-2.9,0.8c-0.8,0.6-1.2,1.3-1.3,2.3c-0.2,1.3,0.6,2.2,2.3,2.9
			l1.9,0.7l1,0.4c2.4,1.1,3.5,2.7,3.3,4.9c-0.1,1-0.4,1.9-1.1,2.7c-0.6,0.8-1.4,1.3-2.5,1.8c-1,0.4-2.2,0.6-3.4,0.6
			c-1.2,0-2.2-0.3-3.2-0.7c-1-0.5-1.7-1.2-2.2-2c-0.5-0.8-0.7-1.8-0.7-2.9l2.4,0c-0.1,1.1,0.2,2,0.9,2.6c0.7,0.6,1.6,1,2.9,1
			c1.2,0,2.2-0.2,3-0.8C279.8,152.5,280.2,151.7,280.3,150.8z"/>
	</g>
	<g>
		<path d="M45.2,47.4c-3.5,2.9-6.9,5.6-10.2,8.5c-7.2,6.5-13.3,13.8-17.1,22.7c-6.9,16-4.4,31,5.3,45c9.5,13.6,22.6,23.1,36.8,31.2
			c19.7,11.2,40.7,19,62.5,25c56.7,15.6,114.5,20.1,173,18c27.9-1,55.6-4.4,83.1-9c0.9-0.1,1.8-0.2,2.7-0.4c0,0.2,0.1,0.5,0.1,0.8
			c-10.5,1.8-21,3.8-31.6,5.5c-39.2,6.1-78.7,8.2-118.4,6.9c-40.6-1.3-80.8-6.2-120.2-17.1c-25.5-7-50.2-16.2-72.3-31.2
			c-11-7.5-20.9-16.3-27.5-28.1c-8.4-15.2-8-30.5,0.4-45.5c7-12.6,17.6-21.9,29.2-30.2c1.1-0.8,2.2-1.5,3.4-2.2
			C44.6,47.2,44.8,47.3,45.2,47.4z"/>
		<path d="M440.6,154.5c5.6-5.6,12.1-11.3,17.7-17.8c9.2-10.7,13.8-23.2,11.3-37.6c-2.1-12.2-9-21.8-17.8-30.2
			C439.2,56.8,424,48.4,408,41.4c-29.5-12.9-60.5-20.2-92.2-25.1c-38-5.8-76.3-7.3-114.7-5.6c-27.3,1.2-54.4,4.4-81.3,9.4
			c-2.8,0.5-5.7,1-8.6,0.9c6.5-1.4,13-2.8,19.6-4c44.1-8.4,88.6-11.6,133.5-10.2C309.2,8,353.7,13.7,396.7,28
			c20.4,6.8,39.8,15.4,56.8,28.8c7.3,5.8,13.8,12.4,18.5,20.5c8.3,14.3,8.7,29,1.1,43.7C465.5,135.5,453.4,145.8,440.6,154.5z"/>
	</g>
</g>
</svg>
